<?xml version="1.0" encoding="UTF-8" standalone="no"?>
<!DOCTYPE svg PUBLIC "-//W3C//DTD SVG 1.1//EN" "http://www.w3.org/Graphics/SVG/1.1/DTD/svg11.dtd">
<svg width="100%" height="100%" viewBox="0 0 592 376" version="1.1" xmlns="http://www.w3.org/2000/svg" xmlns:xlink="http://www.w3.org/1999/xlink" xml:space="preserve" xmlns:serif="http://www.serif.com/" style="fill-rule:evenodd;clip-rule:evenodd;stroke-linecap:round;stroke-linejoin:round;stroke-miterlimit:1.5;">
    <rect id="if_else" x="0" y="0" width="592" height="376" style="fill:rgb(246,248,250);"/>
    <path d="M43.888,245.168L45.322,245.168L45.363,247.107L45.165,246.986C45.374,246.339 45.72,245.843 46.202,245.496C46.684,245.149 47.254,244.976 47.914,244.976C48.694,244.976 49.351,245.174 49.885,245.571C50.418,245.968 50.817,246.503 51.082,247.176C51.346,247.849 51.479,248.598 51.479,249.424C51.479,250.25 51.346,250.999 51.082,251.672C50.817,252.345 50.418,252.88 49.885,253.277C49.351,253.674 48.694,253.872 47.914,253.872C47.483,253.872 47.083,253.797 46.714,253.648C46.345,253.499 46.03,253.286 45.771,253.011C45.512,252.736 45.326,252.415 45.213,252.048L45.418,251.827L45.418,256.08L43.888,256.08L43.888,245.168ZM47.664,252.445C48.353,252.445 48.893,252.18 49.285,251.651C49.676,251.122 49.872,250.38 49.872,249.424C49.872,248.468 49.676,247.726 49.285,247.197C48.893,246.668 48.353,246.403 47.664,246.403C47.205,246.403 46.806,246.518 46.467,246.749C46.128,246.979 45.868,247.32 45.688,247.771C45.508,248.222 45.418,248.773 45.418,249.424C45.418,250.075 45.508,250.625 45.688,251.075C45.868,251.525 46.126,251.866 46.461,252.098C46.796,252.329 47.197,252.445 47.664,252.445Z" style="fill-rule:nonzero;"/>
    <path d="M55.805,245.168L56.983,245.168L57.123,247.312L56.989,247.293C57.091,246.582 57.321,246.051 57.679,245.698C58.036,245.345 58.521,245.168 59.133,245.168L60.944,245.168L60.944,246.538L59.21,246.538C58.798,246.538 58.452,246.616 58.171,246.773C57.891,246.93 57.681,247.161 57.543,247.467C57.404,247.773 57.335,248.148 57.335,248.592L57.335,253.68L55.805,253.68L55.805,245.168ZM53.648,252.349L59.984,252.349L59.984,253.68L53.648,253.68L53.648,252.349ZM53.648,245.168L56.624,245.168L56.624,246.499L53.648,246.499L53.648,245.168Z" style="fill-rule:nonzero;"/>
    <path d="M66.432,245.168L67.968,245.168L67.968,253.68L66.432,253.68L66.432,245.168ZM63.056,252.352L70.864,252.352L70.864,253.68L63.056,253.68L63.056,252.352ZM63.216,245.168L67.872,245.168L67.872,246.496L63.216,246.496L63.216,245.168ZM66.32,242.288L67.92,242.288L67.92,243.92L66.32,243.92L66.32,242.288Z" style="fill-rule:nonzero;"/>
    <path d="M72.951,245.168L74.343,245.168L74.397,247.389L74.218,247.261C74.365,246.508 74.684,245.939 75.176,245.554C75.668,245.169 76.259,244.976 76.951,244.976C77.861,244.976 78.556,245.273 79.035,245.866C79.514,246.459 79.754,247.234 79.754,248.192L79.754,253.68L78.224,253.68L78.224,248.618C78.224,247.845 78.093,247.267 77.83,246.883C77.568,246.499 77.142,246.307 76.554,246.307C75.935,246.307 75.435,246.512 75.053,246.92C74.671,247.329 74.48,247.905 74.48,248.65L74.48,253.68L72.951,253.68L72.951,245.168Z" style="fill-rule:nonzero;"/>
    <path d="M87.063,253.68C86.207,253.68 85.57,253.479 85.15,253.077C84.731,252.675 84.522,252.059 84.522,251.229L84.522,242.97L86.051,242.97L86.051,251.191C86.051,251.585 86.144,251.877 86.328,252.066C86.513,252.254 86.794,252.349 87.171,252.349L89.424,252.349L89.424,253.68L87.063,253.68ZM81.808,245.168L89.424,245.168L89.424,246.499L81.808,246.499L81.808,245.168Z" style="fill-rule:nonzero;"/>
    <path d="M95.216,244.707C95.216,244.372 95.124,244.113 94.939,243.928C94.755,243.744 94.495,243.651 94.16,243.651L92.176,243.651L92.176,242.32L94.243,242.32C95.069,242.32 95.692,242.531 96.114,242.952C96.535,243.373 96.746,243.997 96.746,244.823L96.746,253.68L95.216,253.68L95.216,244.707ZM91.856,252.349L99.664,252.349L99.664,253.68L91.856,253.68L91.856,252.349Z" style="fill-rule:nonzero;"/>
    <path d="M101.751,245.168L103.143,245.168L103.197,247.389L103.018,247.261C103.165,246.508 103.484,245.939 103.976,245.554C104.468,245.169 105.059,244.976 105.751,244.976C106.661,244.976 107.356,245.273 107.835,245.866C108.314,246.459 108.554,247.234 108.554,248.192L108.554,253.68L107.024,253.68L107.024,248.618C107.024,247.845 106.893,247.267 106.63,246.883C106.368,246.499 105.942,246.307 105.354,246.307C104.735,246.307 104.235,246.512 103.853,246.92C103.471,247.329 103.28,247.905 103.28,248.65L103.28,253.68L101.751,253.68L101.751,245.168Z" style="fill-rule:nonzero;"/>
    <path d="M113.616,251.632L115.664,251.632L115.664,253.68L113.616,253.68L113.616,251.632ZM114.135,250.237C114.1,249.874 114.065,249.511 114.029,249.149C113.982,248.613 113.942,248.054 113.909,247.472C113.876,246.89 113.859,246.388 113.859,245.968L113.859,242.32L115.421,242.32L115.421,245.968C115.421,246.371 115.404,246.868 115.371,247.459C115.338,248.05 115.302,248.613 115.264,249.149C115.23,249.511 115.195,249.874 115.159,250.237L114.135,250.237Z" style="fill-rule:nonzero;"/>
    <path d="M125.325,255.12C124.051,253.748 123.195,252.259 122.755,250.651C122.316,249.044 122.316,247.436 122.755,245.829C123.195,244.221 124.051,242.732 125.325,241.36L126.659,241.36C125.505,242.777 124.732,244.277 124.339,245.862C123.947,247.447 123.947,249.033 124.339,250.618C124.732,252.203 125.505,253.704 126.659,255.12L125.325,255.12Z" style="fill-rule:nonzero;"/>
    <path d="M134.487,242.32L135.997,242.32L135.997,243.619L135.626,247.587L134.554,247.587L134.487,242.32ZM131.683,243.616L131.683,242.32L133.187,242.32L133.123,247.587L132.055,247.587L131.683,243.616Z" style="fill-rule:nonzero;"/>
    <path d="M142.672,249.066L139.312,242.32L141.085,242.32L143.44,247.255L145.795,242.32L147.568,242.32L144.24,249.066L144.24,253.68L142.672,253.68L142.672,249.066Z" style="fill-rule:nonzero;"/>
    <path d="M153.04,253.872C152.257,253.872 151.571,253.69 150.982,253.326C150.394,252.963 149.937,252.446 149.611,251.776C149.286,251.106 149.123,250.322 149.123,249.424C149.123,248.526 149.286,247.742 149.611,247.072C149.937,246.402 150.394,245.885 150.982,245.522C151.571,245.158 152.257,244.976 153.04,244.976C153.814,244.976 154.498,245.158 155.091,245.522C155.684,245.885 156.143,246.402 156.469,247.072C156.794,247.742 156.957,248.526 156.957,249.424C156.957,250.322 156.794,251.106 156.469,251.776C156.143,252.446 155.684,252.963 155.091,253.326C154.498,253.69 153.814,253.872 153.04,253.872ZM153.04,252.445C153.77,252.445 154.337,252.177 154.743,251.64C155.148,251.104 155.351,250.365 155.351,249.424C155.351,248.483 155.148,247.745 154.743,247.208C154.337,246.672 153.77,246.403 153.04,246.403C152.31,246.403 151.743,246.669 151.338,247.202C150.932,247.734 150.73,248.475 150.73,249.424C150.73,250.373 150.932,251.114 151.338,251.646C151.743,252.179 152.31,252.445 153.04,252.445Z" style="fill-rule:nonzero;"/>
    <path d="M161.923,253.872C161.108,253.872 160.459,253.591 159.974,253.029C159.49,252.467 159.248,251.683 159.248,250.679L159.248,245.168L160.778,245.168L160.778,250.256C160.778,251.041 160.913,251.618 161.184,251.987C161.455,252.356 161.868,252.541 162.423,252.541C163.037,252.541 163.521,252.337 163.875,251.928C164.229,251.52 164.407,250.945 164.407,250.205L164.407,245.168L165.936,245.168L165.936,253.68L164.49,253.68L164.471,251.459L164.714,251.555C164.56,252.293 164.242,252.864 163.758,253.267C163.275,253.67 162.663,253.872 161.923,253.872Z" style="fill-rule:nonzero;"/>
    <path d="M181.379,253.872C180.662,253.872 180.036,253.69 179.499,253.326C178.963,252.963 178.551,252.446 178.264,251.776C177.977,251.106 177.834,250.322 177.834,249.424C177.834,248.526 177.977,247.742 178.264,247.072C178.551,246.402 178.963,245.885 179.499,245.522C180.036,245.158 180.662,244.976 181.379,244.976C181.927,244.976 182.427,245.107 182.877,245.368C183.327,245.629 183.666,245.961 183.895,246.362L183.895,242.32L185.424,242.32L185.424,253.68L184.01,253.68L183.965,252.407C183.722,252.878 183.375,253.24 182.925,253.493C182.475,253.746 181.959,253.872 181.379,253.872ZM181.597,252.445C182.073,252.445 182.482,252.323 182.826,252.078C183.169,251.834 183.433,251.485 183.618,251.03C183.802,250.576 183.895,250.041 183.895,249.424C183.895,248.799 183.802,248.259 183.618,247.803C183.433,247.348 183.167,247.001 182.819,246.762C182.471,246.523 182.055,246.403 181.571,246.403C180.908,246.403 180.387,246.67 180.008,247.203C179.629,247.737 179.44,248.477 179.44,249.424C179.44,250.363 179.631,251.101 180.014,251.638C180.397,252.176 180.925,252.445 181.597,252.445Z" style="fill-rule:nonzero;"/>
    <path d="M191.232,245.168L192.768,245.168L192.768,253.68L191.232,253.68L191.232,245.168ZM187.856,252.352L195.664,252.352L195.664,253.68L187.856,253.68L187.856,252.352ZM188.016,245.168L192.672,245.168L192.672,246.496L188.016,246.496L188.016,245.168ZM191.12,242.288L192.72,242.288L192.72,243.92L191.12,243.92L191.12,242.288Z" style="fill-rule:nonzero;"/>
    <path d="M200.579,253.872C199.862,253.872 199.236,253.69 198.699,253.326C198.163,252.963 197.751,252.446 197.464,251.776C197.177,251.106 197.034,250.322 197.034,249.424C197.034,248.526 197.177,247.742 197.464,247.072C197.751,246.402 198.163,245.885 198.699,245.522C199.236,245.158 199.862,244.976 200.579,244.976C201.127,244.976 201.627,245.107 202.077,245.368C202.527,245.629 202.866,245.961 203.094,246.362L203.094,242.32L204.624,242.32L204.624,253.68L203.21,253.68L203.165,252.407C202.922,252.878 202.575,253.24 202.125,253.493C201.675,253.746 201.159,253.872 200.579,253.872ZM200.797,252.445C201.273,252.445 201.682,252.323 202.026,252.078C202.369,251.834 202.633,251.485 202.818,251.03C203.002,250.576 203.094,250.041 203.094,249.424C203.094,248.799 203.002,248.259 202.818,247.803C202.633,247.348 202.367,247.001 202.019,246.762C201.671,246.523 201.255,246.403 200.771,246.403C200.108,246.403 199.587,246.67 199.208,247.203C198.829,247.737 198.64,248.477 198.64,249.424C198.64,250.363 198.831,251.101 199.214,251.638C199.597,252.176 200.125,252.445 200.797,252.445Z" style="fill-rule:nonzero;"/>
    <path d="M207.35,245.168L208.742,245.168L208.797,247.389L208.617,247.261C208.765,246.508 209.084,245.939 209.576,245.554C210.068,245.169 210.659,244.976 211.35,244.976C212.261,244.976 212.956,245.273 213.435,245.866C213.914,246.459 214.153,247.234 214.153,248.192L214.153,253.68L212.624,253.68L212.624,248.618C212.624,247.845 212.493,247.267 212.23,246.883C211.968,246.499 211.542,246.307 210.953,246.307C210.335,246.307 209.835,246.512 209.453,246.92C209.071,247.329 208.88,247.905 208.88,248.65L208.88,253.68L207.35,253.68L207.35,245.168Z" style="fill-rule:nonzero;"/>
    <path d="M219.485,243.578L219.485,242.32L220.995,242.32L220.995,243.578L220.777,247.587L219.705,247.587L219.485,243.578Z" style="fill-rule:nonzero;"/>
    <path d="M231.062,253.68C230.207,253.68 229.57,253.479 229.15,253.077C228.731,252.675 228.521,252.059 228.521,251.229L228.521,242.97L230.051,242.97L230.051,251.191C230.051,251.585 230.143,251.877 230.328,252.066C230.512,252.254 230.794,252.349 231.171,252.349L233.424,252.349L233.424,253.68L231.062,253.68ZM225.808,245.168L233.424,245.168L233.424,246.499L225.808,246.499L225.808,245.168Z" style="fill-rule:nonzero;"/>
    <path d="M248.832,245.168L250.368,245.168L250.368,253.68L248.832,253.68L248.832,245.168ZM245.456,252.352L253.264,252.352L253.264,253.68L245.456,253.68L245.456,252.352ZM245.616,245.168L250.272,245.168L250.272,246.496L245.616,246.496L245.616,245.168ZM248.72,242.288L250.32,242.288L250.32,243.92L248.72,243.92L248.72,242.288Z" style="fill-rule:nonzero;"/>
    <path d="M259.862,253.68C259.007,253.68 258.37,253.479 257.95,253.077C257.531,252.675 257.321,252.059 257.321,251.229L257.321,242.97L258.851,242.97L258.851,251.191C258.851,251.585 258.943,251.877 259.128,252.066C259.312,252.254 259.594,252.349 259.971,252.349L262.224,252.349L262.224,253.68L259.862,253.68ZM254.608,245.168L262.224,245.168L262.224,246.499L254.608,246.499L254.608,245.168Z" style="fill-rule:nonzero;"/>
    <path d="M267.216,251.632L269.264,251.632L269.264,253.68L267.216,253.68L267.216,251.632ZM267.734,250.237C267.7,249.874 267.665,249.511 267.629,249.149C267.582,248.613 267.542,248.054 267.509,247.472C267.476,246.89 267.459,246.388 267.459,245.968L267.459,242.32L269.021,242.32L269.021,245.968C269.021,246.371 269.004,246.868 268.971,247.459C268.938,248.05 268.902,248.613 268.864,249.149C268.83,249.511 268.795,249.874 268.758,250.237L267.734,250.237Z" style="fill-rule:nonzero;"/>
    <path d="M278.487,242.32L279.997,242.32L279.997,243.619L279.625,247.587L278.553,247.587L278.487,242.32ZM275.683,243.616L275.683,242.32L277.187,242.32L277.123,247.587L276.054,247.587L275.683,243.616Z" style="fill-rule:nonzero;"/>
    <path d="M285.021,255.12C286.175,253.704 286.948,252.203 287.341,250.618C287.733,249.033 287.733,247.447 287.341,245.862C286.948,244.277 286.175,242.777 285.021,241.36L286.355,241.36C287.629,242.732 288.485,244.221 288.925,245.829C289.364,247.436 289.364,249.044 288.925,250.651C288.485,252.259 287.629,253.748 286.355,255.12L285.021,255.12Z" style="fill-rule:nonzero;"/>
    <path d="M296.016,245.568L298.064,245.568L298.064,247.616L296.016,247.616L296.016,245.568ZM296.912,253.68L296.016,253.68L296.016,251.632L298.064,251.632L298.064,253.456L297.04,256.176L296.144,256.176L296.912,253.68Z" style="fill-rule:nonzero;"/>
    <rect x="32" y="232" width="280" height="32" style="fill:none;stroke:black;stroke-width:1.5px;"/>
    <rect x="112" y="168" width="64" height="32" style="stroke:black;stroke-width:1.5px;"/>
    <path d="M129.715,189.872C128.924,189.872 128.231,189.69 127.638,189.326C127.045,188.963 126.588,188.446 126.267,187.776C125.946,187.106 125.785,186.322 125.785,185.424C125.785,184.532 125.946,183.75 126.267,183.077C126.588,182.404 127.041,181.885 127.626,181.522C128.21,181.158 128.89,180.976 129.664,180.976C130.402,180.976 131.061,181.149 131.642,181.496C132.222,181.843 132.675,182.354 133.002,183.03C133.328,183.707 133.491,184.513 133.491,185.45L133.491,185.859L127.395,185.859C127.444,186.706 127.671,187.349 128.077,187.787C128.482,188.226 129.028,188.445 129.715,188.445C130.225,188.445 130.649,188.325 130.986,188.086C131.323,187.847 131.565,187.513 131.712,187.082L133.337,187.216C133.099,188.018 132.659,188.661 132.018,189.146C131.377,189.63 130.609,189.872 129.715,189.872ZM131.817,184.631C131.747,183.899 131.522,183.345 131.141,182.968C130.76,182.592 130.268,182.403 129.664,182.403C129.052,182.403 128.549,182.593 128.155,182.973C127.762,183.353 127.512,183.905 127.408,184.631L131.817,184.631Z" style="fill:white;fill-rule:nonzero;"/>
    <path d="M138.976,180.707C138.976,180.372 138.884,180.113 138.699,179.928C138.515,179.744 138.255,179.651 137.92,179.651L135.936,179.651L135.936,178.32L138.003,178.32C138.829,178.32 139.452,178.531 139.873,178.952C140.295,179.373 140.505,179.997 140.505,180.823L140.505,189.68L138.976,189.68L138.976,180.707ZM135.616,188.349L143.424,188.349L143.424,189.68L135.616,189.68L135.616,188.349Z" style="fill:white;fill-rule:nonzero;"/>
    <path d="M148.953,189.872C148.232,189.872 147.601,189.746 147.059,189.494C146.517,189.243 146.091,188.9 145.781,188.467C145.47,188.034 145.293,187.546 145.248,187.002L146.829,186.909C146.914,187.397 147.135,187.776 147.493,188.046C147.85,188.316 148.337,188.451 148.953,188.451C149.551,188.451 150.006,188.367 150.32,188.198C150.634,188.03 150.79,187.775 150.79,187.434C150.79,187.199 150.735,187.01 150.624,186.866C150.513,186.722 150.308,186.596 150.009,186.488C149.711,186.38 149.263,186.273 148.665,186.167C147.861,186.019 147.226,185.832 146.76,185.605C146.294,185.378 145.96,185.103 145.76,184.781C145.559,184.459 145.459,184.059 145.459,183.581C145.459,183.086 145.587,182.641 145.843,182.245C146.099,181.849 146.474,181.539 146.966,181.314C147.459,181.089 148.045,180.976 148.723,180.976C149.417,180.976 150.012,181.1 150.509,181.349C151.006,181.597 151.396,181.931 151.68,182.349C151.964,182.767 152.145,183.233 152.224,183.747L150.643,183.843C150.556,183.397 150.345,183.045 150.011,182.786C149.677,182.526 149.246,182.397 148.717,182.397C148.169,182.397 147.749,182.505 147.458,182.722C147.166,182.938 147.021,183.223 147.021,183.575C147.021,183.841 147.088,184.053 147.224,184.21C147.359,184.366 147.573,184.495 147.866,184.597C148.158,184.698 148.576,184.799 149.12,184.899C149.96,185.042 150.614,185.22 151.08,185.434C151.546,185.647 151.875,185.911 152.066,186.227C152.257,186.543 152.352,186.945 152.352,187.434C152.352,188.182 152.037,188.776 151.406,189.214C150.776,189.653 149.958,189.872 148.953,189.872Z" style="fill:white;fill-rule:nonzero;"/>
    <path d="M158.515,189.872C157.724,189.872 157.031,189.69 156.438,189.326C155.845,188.963 155.388,188.446 155.067,187.776C154.746,187.106 154.585,186.322 154.585,185.424C154.585,184.532 154.746,183.75 155.067,183.077C155.388,182.404 155.841,181.885 156.426,181.522C157.01,181.158 157.69,180.976 158.464,180.976C159.202,180.976 159.861,181.149 160.442,181.496C161.022,181.843 161.475,182.354 161.802,183.03C162.128,183.707 162.291,184.513 162.291,185.45L162.291,185.859L156.195,185.859C156.244,186.706 156.471,187.349 156.877,187.787C157.282,188.226 157.828,188.445 158.515,188.445C159.025,188.445 159.449,188.325 159.786,188.086C160.123,187.847 160.365,187.513 160.512,187.082L162.137,187.216C161.899,188.018 161.459,188.661 160.818,189.146C160.177,189.63 159.409,189.872 158.515,189.872ZM160.617,184.631C160.547,183.899 160.322,183.345 159.941,182.968C159.56,182.592 159.068,182.403 158.464,182.403C157.852,182.403 157.349,182.593 156.955,182.973C156.562,183.353 156.312,183.905 156.208,184.631L160.617,184.631Z" style="fill:white;fill-rule:nonzero;"/>
    <path d="M148.5,66.439L144,70.939L139.5,66.439" style="fill:none;stroke:black;stroke-width:1.5px;stroke-linejoin:miter;stroke-miterlimit:10;"/>
    <path d="M144,40L144,70.939" style="fill:none;stroke:black;stroke-width:1.5px;"/>
    <path d="M440.5,114.343L436,118.843L431.5,114.343" style="fill:none;stroke:black;stroke-width:1.5px;stroke-linejoin:miter;stroke-miterlimit:10;"/>
    <path d="M176,88L420,88C424.243,88 428.313,89.686 431.314,92.686C434.314,95.687 436,99.757 436,104C436,110.216 436,116.422 436,118.843" style="fill:none;stroke:black;stroke-width:1.5px;"/>
    <path d="M148.5,162.439L144,166.939L139.5,162.439" style="fill:none;stroke:black;stroke-width:1.5px;stroke-linejoin:miter;stroke-miterlimit:10;"/>
    <path d="M144,104L144,166.939" style="fill:none;stroke:black;stroke-width:1.5px;"/>
    <path d="M148.54,226.439L144.04,230.939L139.54,226.439" style="fill:none;stroke:black;stroke-width:1.5px;stroke-linejoin:miter;stroke-miterlimit:10;"/>
    <path d="M144.04,200L144.04,230.939" style="fill:none;stroke:black;stroke-width:1.5px;"/>
    <path d="M266.958,80C266.103,80 265.466,79.799 265.046,79.397C264.627,78.995 264.417,78.379 264.417,77.549L264.417,69.29L265.947,69.29L265.947,77.511C265.947,77.905 266.039,78.197 266.224,78.386C266.408,78.574 266.69,78.669 267.067,78.669L269.32,78.669L269.32,80L266.958,80ZM261.704,71.488L269.32,71.488L269.32,72.819L261.704,72.819L261.704,71.488Z" style="fill-rule:nonzero;"/>
    <path d="M274.101,71.488L275.278,71.488L275.419,73.632L275.285,73.613C275.387,72.902 275.617,72.371 275.974,72.018C276.332,71.665 276.817,71.488 277.429,71.488L279.24,71.488L279.24,72.858L277.505,72.858C277.094,72.858 276.748,72.936 276.467,73.093C276.187,73.25 275.977,73.481 275.838,73.787C275.7,74.093 275.63,74.468 275.63,74.912L275.63,80L274.101,80L274.101,71.488ZM271.944,78.669L278.28,78.669L278.28,80L271.944,80L271.944,78.669ZM271.944,71.488L274.92,71.488L274.92,72.819L271.944,72.819L271.944,71.488Z" style="fill-rule:nonzero;"/>
    <path d="M284.219,80.192C283.404,80.192 282.755,79.911 282.27,79.349C281.786,78.787 281.544,78.003 281.544,76.999L281.544,71.488L283.073,71.488L283.073,76.576C283.073,77.361 283.209,77.938 283.48,78.307C283.751,78.676 284.164,78.861 284.718,78.861C285.333,78.861 285.817,78.657 286.171,78.248C286.525,77.84 286.702,77.265 286.702,76.525L286.702,71.488L288.232,71.488L288.232,80L286.785,80L286.766,77.779L287.009,77.875C286.856,78.613 286.538,79.184 286.054,79.587C285.571,79.99 284.959,80.192 284.219,80.192Z" style="fill-rule:nonzero;"/>
    <path d="M294.651,80.192C293.86,80.192 293.167,80.01 292.574,79.646C291.981,79.283 291.524,78.766 291.203,78.096C290.882,77.426 290.721,76.642 290.721,75.744C290.721,74.852 290.882,74.07 291.203,73.397C291.524,72.724 291.977,72.205 292.562,71.842C293.146,71.478 293.826,71.296 294.6,71.296C295.338,71.296 295.997,71.469 296.578,71.816C297.158,72.163 297.611,72.674 297.938,73.35C298.264,74.027 298.427,74.833 298.427,75.77L298.427,76.179L292.331,76.179C292.38,77.026 292.607,77.669 293.013,78.107C293.418,78.546 293.964,78.765 294.651,78.765C295.161,78.765 295.585,78.645 295.922,78.406C296.259,78.167 296.501,77.833 296.648,77.402L298.273,77.536C298.035,78.338 297.595,78.981 296.954,79.466C296.313,79.95 295.545,80.192 294.651,80.192ZM296.753,74.951C296.683,74.219 296.458,73.665 296.077,73.288C295.696,72.912 295.204,72.723 294.6,72.723C293.988,72.723 293.485,72.913 293.091,73.293C292.698,73.673 292.448,74.225 292.344,74.951L296.753,74.951Z" style="fill-rule:nonzero;"/>
    <path d="M158.154,132.631C158.154,131.833 158.353,131.232 158.752,130.829C159.151,130.426 159.762,130.224 160.586,130.224L163.056,130.224L163.056,131.555L160.663,131.555C160.338,131.555 160.094,131.648 159.93,131.832C159.765,132.017 159.683,132.285 159.683,132.637L159.683,141.584L158.154,141.584L158.154,132.631ZM155.632,133.072L162.928,133.072L162.928,134.403L155.632,134.403L155.632,133.072Z" style="fill-rule:nonzero;"/>
    <path d="M167.827,141.776C167.296,141.776 166.814,141.679 166.381,141.485C165.948,141.291 165.605,141.014 165.354,140.654C165.102,140.295 164.976,139.884 164.976,139.421C164.976,138.717 165.193,138.161 165.626,137.752C166.059,137.344 166.725,137.051 167.625,136.874L170.409,136.304C170.409,135.634 170.261,135.133 169.963,134.8C169.666,134.467 169.228,134.301 168.65,134.301C168.11,134.301 167.684,134.42 167.371,134.658C167.059,134.896 166.845,135.248 166.73,135.715L165.13,135.6C165.29,134.768 165.679,134.107 166.298,133.616C166.916,133.125 167.7,132.88 168.65,132.88C169.697,132.88 170.507,133.188 171.08,133.803C171.653,134.419 171.939,135.274 171.939,136.368L171.939,139.722C171.939,139.92 171.98,140.058 172.061,140.136C172.142,140.214 172.276,140.253 172.464,140.253L172.976,140.253L172.976,141.584C172.788,141.614 172.545,141.629 172.247,141.629C171.658,141.629 171.217,141.482 170.925,141.187C170.633,140.893 170.479,140.434 170.464,139.811L170.713,139.811C170.617,140.379 170.295,140.848 169.746,141.219C169.196,141.59 168.557,141.776 167.827,141.776ZM167.997,140.451C168.513,140.451 168.953,140.36 169.315,140.178C169.678,139.995 169.951,139.74 170.134,139.411C170.318,139.083 170.409,138.693 170.409,138.243L170.409,137.559L167.971,138.045C167.466,138.141 167.107,138.289 166.894,138.488C166.682,138.688 166.576,138.956 166.576,139.293C166.576,139.658 166.701,139.942 166.95,140.146C167.2,140.349 167.549,140.451 167.997,140.451Z" style="fill-rule:nonzero;"/>
    <path d="M178.32,132.611C178.32,132.276 178.228,132.017 178.043,131.832C177.859,131.648 177.599,131.555 177.264,131.555L175.28,131.555L175.28,130.224L177.347,130.224C178.173,130.224 178.796,130.435 179.218,130.856C179.639,131.277 179.85,131.901 179.85,132.727L179.85,141.584L178.32,141.584L178.32,132.611ZM174.96,140.253L182.768,140.253L182.768,141.584L174.96,141.584L174.96,140.253Z" style="fill-rule:nonzero;"/>
    <path d="M188.298,141.776C187.577,141.776 186.945,141.65 186.403,141.398C185.861,141.147 185.435,140.804 185.125,140.371C184.814,139.938 184.637,139.45 184.592,138.906L186.173,138.813C186.258,139.301 186.479,139.68 186.837,139.95C187.194,140.22 187.681,140.355 188.298,140.355C188.895,140.355 189.35,140.271 189.664,140.102C189.978,139.934 190.135,139.679 190.135,139.338C190.135,139.103 190.079,138.914 189.968,138.77C189.857,138.626 189.652,138.5 189.354,138.392C189.055,138.284 188.607,138.177 188.01,138.071C187.205,137.923 186.57,137.736 186.104,137.509C185.638,137.282 185.305,137.007 185.104,136.685C184.904,136.363 184.803,135.963 184.803,135.485C184.803,134.99 184.931,134.545 185.187,134.149C185.443,133.753 185.818,133.443 186.31,133.218C186.803,132.993 187.389,132.88 188.067,132.88C188.761,132.88 189.356,133.004 189.853,133.253C190.35,133.501 190.74,133.835 191.024,134.253C191.308,134.671 191.489,135.137 191.568,135.651L189.987,135.747C189.9,135.301 189.689,134.949 189.355,134.69C189.021,134.43 188.59,134.301 188.061,134.301C187.513,134.301 187.093,134.409 186.802,134.626C186.51,134.842 186.365,135.127 186.365,135.479C186.365,135.745 186.433,135.957 186.568,136.114C186.704,136.27 186.917,136.399 187.21,136.501C187.502,136.602 187.92,136.703 188.464,136.803C189.305,136.946 189.958,137.124 190.424,137.338C190.89,137.551 191.219,137.815 191.41,138.131C191.601,138.447 191.696,138.849 191.696,139.338C191.696,140.086 191.381,140.68 190.75,141.118C190.12,141.557 189.302,141.776 188.298,141.776Z" style="fill-rule:nonzero;"/>
    <path d="M197.859,141.776C197.068,141.776 196.375,141.594 195.782,141.23C195.189,140.867 194.732,140.35 194.411,139.68C194.09,139.01 193.929,138.226 193.929,137.328C193.929,136.436 194.09,135.654 194.411,134.981C194.732,134.308 195.185,133.789 195.77,133.426C196.354,133.062 197.034,132.88 197.808,132.88C198.546,132.88 199.205,133.053 199.786,133.4C200.366,133.747 200.819,134.258 201.146,134.934C201.472,135.611 201.635,136.417 201.635,137.354L201.635,137.763L195.539,137.763C195.588,138.61 195.815,139.253 196.221,139.691C196.626,140.13 197.172,140.349 197.859,140.349C198.369,140.349 198.793,140.229 199.13,139.99C199.467,139.751 199.709,139.417 199.856,138.986L201.481,139.12C201.243,139.922 200.803,140.565 200.162,141.05C199.521,141.534 198.753,141.776 197.859,141.776ZM199.961,136.535C199.891,135.803 199.666,135.249 199.285,134.872C198.904,134.496 198.412,134.307 197.808,134.307C197.196,134.307 196.693,134.497 196.299,134.877C195.906,135.257 195.656,135.809 195.552,136.535L199.961,136.535Z" style="fill-rule:nonzero;"/>
    <circle cx="144" cy="32" r="8" style="fill:none;stroke:black;stroke-width:1.5px;"/>
    <circle cx="144" cy="336" r="8" style="fill:none;stroke:black;stroke-width:1.5px;"/>
    <path d="M148.5,322.439L144,326.939L139.5,322.439" style="fill:none;stroke:black;stroke-width:1.5px;stroke-linejoin:miter;stroke-miterlimit:10;"/>
    <path d="M144,264L144,326.939" style="fill:none;stroke:black;stroke-width:1.5px;"/>
    <path d="M436,152.096L436,280.09C436,284.334 434.313,288.405 431.312,291.406C428.31,294.406 424.238,296.091 419.994,296.09C369.038,296.07 210.962,296.01 160.006,295.99C155.762,295.989 151.69,297.674 148.688,300.674C145.687,303.675 144,307.746 144,311.99C144,319.995 144,328 144,328" style="fill:none;stroke:black;stroke-width:1.5px;"/>
    <path d="M323.888,133.168L325.321,133.168L325.363,135.107L325.165,134.985C325.374,134.339 325.72,133.843 326.202,133.496C326.684,133.149 327.254,132.976 327.913,132.976C328.694,132.976 329.351,133.174 329.885,133.571C330.418,133.968 330.817,134.503 331.082,135.176C331.346,135.849 331.478,136.598 331.478,137.424C331.478,138.25 331.346,138.999 331.082,139.672C330.817,140.345 330.418,140.88 329.885,141.277C329.351,141.674 328.694,141.872 327.913,141.872C327.483,141.872 327.083,141.797 326.714,141.648C326.345,141.499 326.03,141.286 325.771,141.011C325.512,140.736 325.326,140.415 325.213,140.048L325.417,139.827L325.417,144.08L323.888,144.08L323.888,133.168ZM327.664,140.445C328.353,140.445 328.893,140.18 329.285,139.651C329.676,139.122 329.872,138.38 329.872,137.424C329.872,136.468 329.676,135.726 329.285,135.197C328.893,134.668 328.353,134.403 327.664,134.403C327.205,134.403 326.806,134.518 326.467,134.749C326.128,134.979 325.868,135.32 325.688,135.771C325.508,136.222 325.417,136.773 325.417,137.424C325.417,138.075 325.508,138.625 325.688,139.075C325.868,139.525 326.126,139.866 326.461,140.098C326.796,140.329 327.197,140.445 327.664,140.445Z" style="fill-rule:nonzero;"/>
    <path d="M335.805,133.168L336.982,133.168L337.123,135.312L336.989,135.293C337.091,134.582 337.321,134.051 337.678,133.698C338.036,133.345 338.521,133.168 339.133,133.168L340.944,133.168L340.944,134.537L339.209,134.537C338.798,134.537 338.452,134.616 338.171,134.773C337.891,134.93 337.681,135.161 337.542,135.467C337.404,135.773 337.334,136.148 337.334,136.592L337.334,141.68L335.805,141.68L335.805,133.168ZM333.648,140.349L339.984,140.349L339.984,141.68L333.648,141.68L333.648,140.349ZM333.648,133.168L336.624,133.168L336.624,134.499L333.648,134.499L333.648,133.168Z" style="fill-rule:nonzero;"/>
    <path d="M346.432,133.168L347.968,133.168L347.968,141.68L346.432,141.68L346.432,133.168ZM343.056,140.352L350.864,140.352L350.864,141.68L343.056,141.68L343.056,140.352ZM343.216,133.168L347.872,133.168L347.872,134.496L343.216,134.496L343.216,133.168ZM346.32,130.288L347.92,130.288L347.92,131.92L346.32,131.92L346.32,130.288Z" style="fill-rule:nonzero;"/>
    <path d="M352.95,133.168L354.342,133.168L354.397,135.389L354.217,135.261C354.365,134.508 354.684,133.939 355.176,133.554C355.668,133.169 356.259,132.976 356.95,132.976C357.861,132.976 358.556,133.273 359.035,133.866C359.514,134.459 359.753,135.234 359.753,136.192L359.753,141.68L358.224,141.68L358.224,136.617C358.224,135.845 358.093,135.267 357.83,134.883C357.568,134.499 357.142,134.307 356.553,134.307C355.935,134.307 355.435,134.511 355.053,134.92C354.671,135.328 354.48,135.905 354.48,136.649L354.48,141.68L352.95,141.68L352.95,133.168Z" style="fill-rule:nonzero;"/>
    <path d="M367.062,141.68C366.207,141.68 365.57,141.479 365.15,141.077C364.731,140.675 364.521,140.059 364.521,139.229L364.521,130.969L366.051,130.969L366.051,139.19C366.051,139.585 366.143,139.877 366.328,140.066C366.512,140.254 366.794,140.349 367.171,140.349L369.424,140.349L369.424,141.68L367.062,141.68ZM361.808,133.168L369.424,133.168L369.424,134.499L361.808,134.499L361.808,133.168Z" style="fill-rule:nonzero;"/>
    <path d="M375.216,132.707C375.216,132.372 375.124,132.112 374.939,131.928C374.755,131.743 374.495,131.651 374.16,131.651L372.176,131.651L372.176,130.32L374.243,130.32C375.069,130.32 375.692,130.531 376.113,130.952C376.535,131.373 376.745,131.997 376.745,132.822L376.745,141.68L375.216,141.68L375.216,132.707ZM371.856,140.349L379.664,140.349L379.664,141.68L371.856,141.68L371.856,140.349Z" style="fill-rule:nonzero;"/>
    <path d="M381.75,133.168L383.142,133.168L383.197,135.389L383.017,135.261C383.165,134.508 383.484,133.939 383.976,133.554C384.468,133.169 385.059,132.976 385.75,132.976C386.661,132.976 387.356,133.273 387.835,133.866C388.314,134.459 388.553,135.234 388.553,136.192L388.553,141.68L387.024,141.68L387.024,136.617C387.024,135.845 386.893,135.267 386.63,134.883C386.368,134.499 385.942,134.307 385.353,134.307C384.735,134.307 384.235,134.511 383.853,134.92C383.471,135.328 383.28,135.905 383.28,136.649L383.28,141.68L381.75,141.68L381.75,133.168Z" style="fill-rule:nonzero;"/>
    <path d="M393.616,139.632L395.664,139.632L395.664,141.68L393.616,141.68L393.616,139.632ZM394.134,138.237C394.1,137.874 394.065,137.511 394.029,137.149C393.982,136.613 393.942,136.054 393.909,135.472C393.876,134.89 393.859,134.388 393.859,133.968L393.859,130.32L395.421,130.32L395.421,133.968C395.421,134.371 395.404,134.868 395.371,135.459C395.338,136.05 395.302,136.613 395.264,137.149C395.23,137.511 395.195,137.874 395.158,138.237L394.134,138.237Z" style="fill-rule:nonzero;"/>
    <path d="M405.325,143.12C404.051,141.748 403.195,140.259 402.755,138.651C402.316,137.044 402.316,135.436 402.755,133.829C403.195,132.221 404.051,130.732 405.325,129.36L406.659,129.36C405.505,130.776 404.732,132.277 404.339,133.862C403.947,135.447 403.947,137.033 404.339,138.618C404.732,140.203 405.505,141.703 406.659,143.12L405.325,143.12Z" style="fill-rule:nonzero;"/>
    <path d="M414.486,130.32L415.997,130.32L415.997,131.619L415.625,135.587L414.553,135.587L414.486,130.32ZM411.683,131.616L411.683,130.32L413.187,130.32L413.123,135.587L412.054,135.587L411.683,131.616Z" style="fill-rule:nonzero;"/>
    <path d="M422.672,137.065L419.312,130.32L421.085,130.32L423.44,135.254L425.795,130.32L427.568,130.32L424.24,137.065L424.24,141.68L422.672,141.68L422.672,137.065Z" style="fill-rule:nonzero;"/>
    <path d="M433.04,141.872C432.257,141.872 431.571,141.69 430.982,141.326C430.394,140.963 429.937,140.446 429.611,139.776C429.286,139.106 429.123,138.322 429.123,137.424C429.123,136.526 429.286,135.742 429.611,135.072C429.937,134.402 430.394,133.885 430.982,133.522C431.571,133.158 432.257,132.976 433.04,132.976C433.814,132.976 434.498,133.158 435.091,133.522C435.684,133.885 436.143,134.402 436.469,135.072C436.794,135.742 436.957,136.526 436.957,137.424C436.957,138.322 436.794,139.106 436.469,139.776C436.143,140.446 435.684,140.963 435.091,141.326C434.498,141.69 433.814,141.872 433.04,141.872ZM433.04,140.445C433.77,140.445 434.337,140.176 434.742,139.64C435.148,139.103 435.35,138.365 435.35,137.424C435.35,136.483 435.148,135.744 434.742,135.208C434.337,134.671 433.77,134.403 433.04,134.403C432.31,134.403 431.743,134.669 431.337,135.202C430.932,135.734 430.729,136.475 430.729,137.424C430.729,138.373 430.932,139.114 431.337,139.646C431.743,140.179 432.31,140.445 433.04,140.445Z" style="fill-rule:nonzero;"/>
    <path d="M441.923,141.872C441.108,141.872 440.459,141.591 439.974,141.029C439.49,140.467 439.248,139.683 439.248,138.678L439.248,133.168L440.777,133.168L440.777,138.256C440.777,139.041 440.913,139.618 441.184,139.987C441.455,140.356 441.868,140.541 442.422,140.541C443.037,140.541 443.521,140.336 443.875,139.928C444.229,139.519 444.406,138.945 444.406,138.205L444.406,133.168L445.936,133.168L445.936,141.68L444.489,141.68L444.47,139.459L444.713,139.555C444.56,140.293 444.242,140.864 443.758,141.267C443.275,141.67 442.663,141.872 441.923,141.872Z" style="fill-rule:nonzero;"/>
    <path d="M461.379,141.872C460.662,141.872 460.036,141.69 459.499,141.326C458.963,140.963 458.551,140.446 458.264,139.776C457.977,139.106 457.833,138.322 457.833,137.424C457.833,136.526 457.977,135.742 458.264,135.072C458.551,134.402 458.963,133.885 459.499,133.522C460.036,133.158 460.662,132.976 461.379,132.976C461.927,132.976 462.427,133.107 462.877,133.368C463.327,133.629 463.666,133.96 463.894,134.361L463.894,130.32L465.424,130.32L465.424,141.68L464.009,141.68L463.965,140.406C463.722,140.878 463.375,141.24 462.925,141.493C462.475,141.746 461.959,141.872 461.379,141.872ZM461.597,140.445C462.073,140.445 462.482,140.323 462.826,140.078C463.169,139.834 463.433,139.485 463.618,139.03C463.802,138.576 463.894,138.04 463.894,137.424C463.894,136.799 463.802,136.259 463.618,135.803C463.433,135.348 463.167,135.001 462.819,134.762C462.471,134.523 462.055,134.403 461.571,134.403C460.908,134.403 460.387,134.67 460.008,135.203C459.629,135.737 459.44,136.477 459.44,137.424C459.44,138.363 459.631,139.101 460.014,139.638C460.397,140.176 460.925,140.445 461.597,140.445Z" style="fill-rule:nonzero;"/>
    <path d="M471.232,133.168L472.768,133.168L472.768,141.68L471.232,141.68L471.232,133.168ZM467.856,140.352L475.664,140.352L475.664,141.68L467.856,141.68L467.856,140.352ZM468.016,133.168L472.672,133.168L472.672,134.496L468.016,134.496L468.016,133.168ZM471.12,130.288L472.72,130.288L472.72,131.92L471.12,131.92L471.12,130.288Z" style="fill-rule:nonzero;"/>
    <path d="M480.579,141.872C479.862,141.872 479.236,141.69 478.699,141.326C478.163,140.963 477.751,140.446 477.464,139.776C477.177,139.106 477.033,138.322 477.033,137.424C477.033,136.526 477.177,135.742 477.464,135.072C477.751,134.402 478.163,133.885 478.699,133.522C479.236,133.158 479.862,132.976 480.579,132.976C481.127,132.976 481.627,133.107 482.077,133.368C482.527,133.629 482.866,133.96 483.094,134.361L483.094,130.32L484.624,130.32L484.624,141.68L483.209,141.68L483.165,140.406C482.922,140.878 482.575,141.24 482.125,141.493C481.675,141.746 481.159,141.872 480.579,141.872ZM480.797,140.445C481.273,140.445 481.682,140.323 482.026,140.078C482.369,139.834 482.633,139.485 482.818,139.03C483.002,138.576 483.094,138.04 483.094,137.424C483.094,136.799 483.002,136.259 482.818,135.803C482.633,135.348 482.367,135.001 482.019,134.762C481.671,134.523 481.255,134.403 480.771,134.403C480.108,134.403 479.587,134.67 479.208,135.203C478.829,135.737 478.64,136.477 478.64,137.424C478.64,138.363 478.831,139.101 479.214,139.638C479.597,140.176 480.125,140.445 480.797,140.445Z" style="fill-rule:nonzero;"/>
    <path d="M500.032,133.168L501.568,133.168L501.568,141.68L500.032,141.68L500.032,133.168ZM496.656,140.352L504.464,140.352L504.464,141.68L496.656,141.68L496.656,140.352ZM496.816,133.168L501.472,133.168L501.472,134.496L496.816,134.496L496.816,133.168ZM499.92,130.288L501.52,130.288L501.52,131.92L499.92,131.92L499.92,130.288Z" style="fill-rule:nonzero;"/>
    <path d="M511.062,141.68C510.207,141.68 509.57,141.479 509.15,141.077C508.731,140.675 508.521,140.059 508.521,139.229L508.521,130.969L510.051,130.969L510.051,139.19C510.051,139.585 510.143,139.877 510.328,140.066C510.512,140.254 510.794,140.349 511.171,140.349L513.424,140.349L513.424,141.68L511.062,141.68ZM505.808,133.168L513.424,133.168L513.424,134.499L505.808,134.499L505.808,133.168Z" style="fill-rule:nonzero;"/>
    <path d="M518.416,139.632L520.464,139.632L520.464,141.68L518.416,141.68L518.416,139.632ZM518.934,138.237C518.9,137.874 518.865,137.511 518.829,137.149C518.782,136.613 518.742,136.054 518.709,135.472C518.676,134.89 518.659,134.388 518.659,133.968L518.659,130.32L520.221,130.32L520.221,133.968C520.221,134.371 520.204,134.868 520.171,135.459C520.138,136.05 520.102,136.613 520.064,137.149C520.03,137.511 519.995,137.874 519.958,138.237L518.934,138.237Z" style="fill-rule:nonzero;"/>
    <path d="M529.686,130.32L531.197,130.32L531.197,131.619L530.825,135.587L529.753,135.587L529.686,130.32ZM526.883,131.616L526.883,130.32L528.387,130.32L528.323,135.587L527.254,135.587L526.883,131.616Z" style="fill-rule:nonzero;"/>
    <path d="M536.221,143.12C537.375,141.703 538.148,140.203 538.541,138.618C538.933,137.033 538.933,135.447 538.541,133.862C538.148,132.277 537.375,130.776 536.221,129.36L537.555,129.36C538.829,130.732 539.685,132.221 540.125,133.829C540.564,135.436 540.564,137.044 540.125,138.651C539.685,140.259 538.829,141.748 537.555,143.12L536.221,143.12Z" style="fill-rule:nonzero;"/>
    <path d="M547.216,133.568L549.264,133.568L549.264,135.616L547.216,135.616L547.216,133.568ZM548.112,141.68L547.216,141.68L547.216,139.632L549.264,139.632L549.264,141.456L548.24,144.176L547.344,144.176L548.112,141.68Z" style="fill-rule:nonzero;"/>
    <rect x="312" y="120" width="248" height="32" style="fill:none;stroke:black;stroke-width:1.5px;"/>
    <rect x="112" y="72" width="32" height="32" style="stroke:black;stroke-width:1.5px;"/>
    <path d="M158.323,93.872C157.792,93.872 157.31,93.775 156.877,93.581C156.444,93.387 156.101,93.11 155.85,92.75C155.598,92.391 155.472,91.98 155.472,91.517C155.472,90.813 155.689,90.256 156.122,89.848C156.555,89.439 157.221,89.147 158.121,88.969L160.905,88.4C160.905,87.73 160.757,87.229 160.459,86.896C160.162,86.563 159.724,86.397 159.145,86.397C158.606,86.397 158.18,86.516 157.867,86.754C157.555,86.992 157.341,87.344 157.225,87.811L155.625,87.696C155.785,86.864 156.175,86.203 156.794,85.712C157.412,85.221 158.196,84.976 159.145,84.976C160.193,84.976 161.003,85.284 161.576,85.899C162.149,86.515 162.435,87.37 162.435,88.464L162.435,91.817C162.435,92.016 162.476,92.154 162.557,92.232C162.638,92.31 162.772,92.349 162.96,92.349L163.472,92.349L163.472,93.68C163.284,93.71 163.041,93.725 162.742,93.725C162.154,93.725 161.713,93.578 161.421,93.283C161.129,92.989 160.975,92.53 160.96,91.907L161.209,91.907C161.113,92.475 160.791,92.944 160.241,93.315C159.692,93.686 159.053,93.872 158.323,93.872ZM158.493,92.547C159.009,92.547 159.449,92.456 159.811,92.274C160.174,92.091 160.447,91.836 160.63,91.507C160.814,91.179 160.905,90.789 160.905,90.339L160.905,89.654L158.467,90.141C157.962,90.237 157.603,90.384 157.39,90.584C157.178,90.783 157.072,91.052 157.072,91.389C157.072,91.754 157.197,92.038 157.446,92.242C157.696,92.445 158.045,92.547 158.493,92.547Z" style="fill-rule:nonzero;"/>
    <rect x="144" y="72" width="32" height="32" style="fill:none;stroke:black;stroke-width:1.5px;"/>
    <path d="M122.992,85.168L124.528,85.168L124.528,93.68L122.992,93.68L122.992,85.168ZM119.616,92.352L127.424,92.352L127.424,93.68L119.616,93.68L119.616,92.352ZM119.776,85.168L124.432,85.168L124.432,86.496L119.776,86.496L119.776,85.168ZM122.88,82.288L124.48,82.288L124.48,83.92L122.88,83.92L122.88,82.288Z" style="fill:white;fill-rule:nonzero;"/>
    <path d="M131.609,84.726C131.609,83.928 131.809,83.328 132.208,82.925C132.607,82.522 133.218,82.32 134.041,82.32L136.512,82.32L136.512,83.651L134.118,83.651C133.794,83.651 133.55,83.743 133.386,83.928C133.221,84.112 133.139,84.381 133.139,84.733L133.139,93.68L131.609,93.68L131.609,84.726ZM129.088,85.168L136.384,85.168L136.384,86.499L129.088,86.499L129.088,85.168Z" style="fill:white;fill-rule:nonzero;"/>
</svg>
