<?xml version="1.0" encoding="UTF-8" standalone="no"?>
<!DOCTYPE svg PUBLIC "-//W3C//DTD SVG 1.1//EN" "http://www.w3.org/Graphics/SVG/1.1/DTD/svg11.dtd">
<svg width="100%" height="100%" viewBox="0 0 448 256" version="1.1" xmlns="http://www.w3.org/2000/svg" xmlns:xlink="http://www.w3.org/1999/xlink" xml:space="preserve" xmlns:serif="http://www.serif.com/" style="fill-rule:evenodd;clip-rule:evenodd;stroke-linecap:round;stroke-linejoin:round;stroke-miterlimit:1.5;">
    <rect id="if" x="0" y="0" width="448" height="256" style="fill:rgb(246,248,250);"/>
    <rect x="32" y="72" width="32" height="32" style="stroke:black;stroke-width:1.5px;"/>
    <path d="M78.323,93.872C77.792,93.872 77.31,93.775 76.877,93.581C76.444,93.387 76.101,93.11 75.85,92.75C75.598,92.391 75.472,91.98 75.472,91.517C75.472,90.813 75.689,90.257 76.122,89.848C76.555,89.44 77.221,89.147 78.122,88.97L80.906,88.4C80.906,87.73 80.757,87.229 80.459,86.896C80.162,86.563 79.724,86.397 79.146,86.397C78.606,86.397 78.18,86.516 77.867,86.754C77.555,86.992 77.341,87.344 77.226,87.811L75.626,87.696C75.786,86.864 76.175,86.203 76.794,85.712C77.412,85.221 78.196,84.976 79.146,84.976C80.193,84.976 81.003,85.284 81.576,85.899C82.149,86.515 82.435,87.37 82.435,88.464L82.435,91.818C82.435,92.016 82.476,92.154 82.557,92.232C82.638,92.31 82.772,92.349 82.96,92.349L83.472,92.349L83.472,93.68C83.284,93.71 83.041,93.725 82.743,93.725C82.154,93.725 81.713,93.578 81.421,93.283C81.129,92.989 80.975,92.53 80.96,91.907L81.21,91.907C81.114,92.475 80.791,92.944 80.242,93.315C79.692,93.686 79.053,93.872 78.323,93.872ZM78.493,92.547C79.009,92.547 79.449,92.456 79.811,92.274C80.174,92.091 80.447,91.836 80.63,91.507C80.814,91.179 80.906,90.789 80.906,90.339L80.906,89.655L78.467,90.141C77.962,90.237 77.603,90.385 77.39,90.584C77.178,90.784 77.072,91.052 77.072,91.389C77.072,91.754 77.197,92.038 77.446,92.242C77.696,92.445 78.045,92.547 78.493,92.547Z" style="fill-rule:nonzero;"/>
    <path d="M179.888,133.168L181.322,133.168L181.363,135.107L181.165,134.986C181.374,134.339 181.72,133.843 182.202,133.496C182.684,133.149 183.254,132.976 183.914,132.976C184.694,132.976 185.351,133.174 185.885,133.571C186.418,133.968 186.817,134.503 187.082,135.176C187.346,135.849 187.479,136.598 187.479,137.424C187.479,138.25 187.346,138.999 187.082,139.672C186.817,140.345 186.418,140.88 185.885,141.277C185.351,141.674 184.694,141.872 183.914,141.872C183.483,141.872 183.083,141.797 182.714,141.648C182.345,141.499 182.03,141.286 181.771,141.011C181.512,140.736 181.326,140.415 181.213,140.048L181.418,139.827L181.418,144.08L179.888,144.08L179.888,133.168ZM183.664,140.445C184.353,140.445 184.893,140.18 185.285,139.651C185.676,139.122 185.872,138.38 185.872,137.424C185.872,136.468 185.676,135.726 185.285,135.197C184.893,134.668 184.353,134.403 183.664,134.403C183.205,134.403 182.806,134.518 182.467,134.749C182.128,134.979 181.868,135.32 181.688,135.771C181.508,136.222 181.418,136.773 181.418,137.424C181.418,138.075 181.508,138.625 181.688,139.075C181.868,139.525 182.126,139.866 182.461,140.098C182.796,140.329 183.197,140.445 183.664,140.445Z" style="fill-rule:nonzero;"/>
    <path d="M191.805,133.168L192.983,133.168L193.123,135.312L192.989,135.293C193.091,134.582 193.321,134.051 193.679,133.698C194.036,133.345 194.521,133.168 195.133,133.168L196.944,133.168L196.944,134.538L195.21,134.538C194.798,134.538 194.452,134.616 194.171,134.773C193.891,134.93 193.681,135.161 193.543,135.467C193.404,135.773 193.335,136.148 193.335,136.592L193.335,141.68L191.805,141.68L191.805,133.168ZM189.648,140.349L195.984,140.349L195.984,141.68L189.648,141.68L189.648,140.349ZM189.648,133.168L192.624,133.168L192.624,134.499L189.648,134.499L189.648,133.168Z" style="fill-rule:nonzero;"/>
    <path d="M202.432,133.168L203.968,133.168L203.968,141.68L202.432,141.68L202.432,133.168ZM199.056,140.352L206.864,140.352L206.864,141.68L199.056,141.68L199.056,140.352ZM199.216,133.168L203.872,133.168L203.872,134.496L199.216,134.496L199.216,133.168ZM202.32,130.288L203.92,130.288L203.92,131.92L202.32,131.92L202.32,130.288Z" style="fill-rule:nonzero;"/>
    <path d="M208.951,133.168L210.343,133.168L210.397,135.389L210.218,135.261C210.365,134.508 210.684,133.939 211.176,133.554C211.668,133.169 212.259,132.976 212.951,132.976C213.861,132.976 214.556,133.273 215.035,133.866C215.514,134.459 215.754,135.234 215.754,136.192L215.754,141.68L214.224,141.68L214.224,136.618C214.224,135.845 214.093,135.267 213.83,134.883C213.568,134.499 213.142,134.307 212.554,134.307C211.935,134.307 211.435,134.512 211.053,134.92C210.671,135.329 210.48,135.905 210.48,136.65L210.48,141.68L208.951,141.68L208.951,133.168Z" style="fill-rule:nonzero;"/>
    <path d="M223.063,141.68C222.207,141.68 221.57,141.479 221.15,141.077C220.731,140.675 220.522,140.059 220.522,139.229L220.522,130.97L222.051,130.97L222.051,139.191C222.051,139.585 222.144,139.877 222.328,140.066C222.513,140.254 222.794,140.349 223.171,140.349L225.424,140.349L225.424,141.68L223.063,141.68ZM217.808,133.168L225.424,133.168L225.424,134.499L217.808,134.499L217.808,133.168Z" style="fill-rule:nonzero;"/>
    <path d="M231.216,132.707C231.216,132.372 231.124,132.113 230.939,131.928C230.755,131.744 230.495,131.651 230.16,131.651L228.176,131.651L228.176,130.32L230.243,130.32C231.069,130.32 231.692,130.531 232.114,130.952C232.535,131.373 232.746,131.997 232.746,132.823L232.746,141.68L231.216,141.68L231.216,132.707ZM227.856,140.349L235.664,140.349L235.664,141.68L227.856,141.68L227.856,140.349Z" style="fill-rule:nonzero;"/>
    <path d="M237.751,133.168L239.143,133.168L239.197,135.389L239.018,135.261C239.165,134.508 239.484,133.939 239.976,133.554C240.468,133.169 241.059,132.976 241.751,132.976C242.661,132.976 243.356,133.273 243.835,133.866C244.314,134.459 244.554,135.234 244.554,136.192L244.554,141.68L243.024,141.68L243.024,136.618C243.024,135.845 242.893,135.267 242.63,134.883C242.368,134.499 241.942,134.307 241.354,134.307C240.735,134.307 240.235,134.512 239.853,134.92C239.471,135.329 239.28,135.905 239.28,136.65L239.28,141.68L237.751,141.68L237.751,133.168Z" style="fill-rule:nonzero;"/>
    <path d="M249.616,139.632L251.664,139.632L251.664,141.68L249.616,141.68L249.616,139.632ZM250.135,138.237C250.1,137.874 250.065,137.511 250.029,137.149C249.982,136.613 249.942,136.054 249.909,135.472C249.876,134.89 249.859,134.388 249.859,133.968L249.859,130.32L251.421,130.32L251.421,133.968C251.421,134.371 251.404,134.868 251.371,135.459C251.338,136.05 251.302,136.613 251.264,137.149C251.23,137.511 251.195,137.874 251.159,138.237L250.135,138.237Z" style="fill-rule:nonzero;"/>
    <path d="M261.325,143.12C260.051,141.748 259.195,140.259 258.755,138.651C258.316,137.044 258.316,135.436 258.755,133.829C259.195,132.221 260.051,130.732 261.325,129.36L262.659,129.36C261.505,130.777 260.732,132.277 260.339,133.862C259.947,135.447 259.947,137.033 260.339,138.618C260.732,140.203 261.505,141.704 262.659,143.12L261.325,143.12Z" style="fill-rule:nonzero;"/>
    <path d="M270.487,130.32L271.997,130.32L271.997,131.619L271.626,135.587L270.554,135.587L270.487,130.32ZM267.683,131.616L267.683,130.32L269.187,130.32L269.123,135.587L268.055,135.587L267.683,131.616Z" style="fill-rule:nonzero;"/>
    <path d="M278.672,137.066L275.312,130.32L277.085,130.32L279.44,135.255L281.795,130.32L283.568,130.32L280.24,137.066L280.24,141.68L278.672,141.68L278.672,137.066Z" style="fill-rule:nonzero;"/>
    <path d="M289.04,141.872C288.257,141.872 287.571,141.69 286.982,141.326C286.394,140.963 285.937,140.446 285.611,139.776C285.286,139.106 285.123,138.322 285.123,137.424C285.123,136.526 285.286,135.742 285.611,135.072C285.937,134.402 286.394,133.885 286.982,133.522C287.571,133.158 288.257,132.976 289.04,132.976C289.814,132.976 290.498,133.158 291.091,133.522C291.684,133.885 292.143,134.402 292.469,135.072C292.794,135.742 292.957,136.526 292.957,137.424C292.957,138.322 292.794,139.106 292.469,139.776C292.143,140.446 291.684,140.963 291.091,141.326C290.498,141.69 289.814,141.872 289.04,141.872ZM289.04,140.445C289.77,140.445 290.337,140.177 290.743,139.64C291.148,139.104 291.351,138.365 291.351,137.424C291.351,136.483 291.148,135.745 290.743,135.208C290.337,134.672 289.77,134.403 289.04,134.403C288.31,134.403 287.743,134.669 287.338,135.202C286.932,135.734 286.73,136.475 286.73,137.424C286.73,138.373 286.932,139.114 287.338,139.646C287.743,140.179 288.31,140.445 289.04,140.445Z" style="fill-rule:nonzero;"/>
    <path d="M297.923,141.872C297.108,141.872 296.459,141.591 295.974,141.029C295.49,140.467 295.248,139.683 295.248,138.679L295.248,133.168L296.778,133.168L296.778,138.256C296.778,139.041 296.913,139.618 297.184,139.987C297.455,140.356 297.868,140.541 298.423,140.541C299.037,140.541 299.521,140.337 299.875,139.928C300.229,139.52 300.407,138.945 300.407,138.205L300.407,133.168L301.936,133.168L301.936,141.68L300.49,141.68L300.471,139.459L300.714,139.555C300.56,140.293 300.242,140.864 299.758,141.267C299.275,141.67 298.663,141.872 297.923,141.872Z" style="fill-rule:nonzero;"/>
    <path d="M317.379,141.872C316.662,141.872 316.036,141.69 315.499,141.326C314.963,140.963 314.551,140.446 314.264,139.776C313.977,139.106 313.834,138.322 313.834,137.424C313.834,136.526 313.977,135.742 314.264,135.072C314.551,134.402 314.963,133.885 315.499,133.522C316.036,133.158 316.662,132.976 317.379,132.976C317.927,132.976 318.427,133.107 318.877,133.368C319.327,133.629 319.666,133.961 319.895,134.362L319.895,130.32L321.424,130.32L321.424,141.68L320.01,141.68L319.965,140.407C319.722,140.878 319.375,141.24 318.925,141.493C318.475,141.746 317.959,141.872 317.379,141.872ZM317.597,140.445C318.073,140.445 318.482,140.323 318.826,140.078C319.169,139.834 319.433,139.485 319.618,139.03C319.802,138.576 319.895,138.041 319.895,137.424C319.895,136.799 319.802,136.259 319.618,135.803C319.433,135.348 319.167,135.001 318.819,134.762C318.471,134.523 318.055,134.403 317.571,134.403C316.908,134.403 316.387,134.67 316.008,135.203C315.629,135.737 315.44,136.477 315.44,137.424C315.44,138.363 315.631,139.101 316.014,139.638C316.397,140.176 316.925,140.445 317.597,140.445Z" style="fill-rule:nonzero;"/>
    <path d="M327.232,133.168L328.768,133.168L328.768,141.68L327.232,141.68L327.232,133.168ZM323.856,140.352L331.664,140.352L331.664,141.68L323.856,141.68L323.856,140.352ZM324.016,133.168L328.672,133.168L328.672,134.496L324.016,134.496L324.016,133.168ZM327.12,130.288L328.72,130.288L328.72,131.92L327.12,131.92L327.12,130.288Z" style="fill-rule:nonzero;"/>
    <path d="M336.579,141.872C335.862,141.872 335.236,141.69 334.699,141.326C334.163,140.963 333.751,140.446 333.464,139.776C333.177,139.106 333.034,138.322 333.034,137.424C333.034,136.526 333.177,135.742 333.464,135.072C333.751,134.402 334.163,133.885 334.699,133.522C335.236,133.158 335.862,132.976 336.579,132.976C337.127,132.976 337.627,133.107 338.077,133.368C338.527,133.629 338.866,133.961 339.095,134.362L339.095,130.32L340.624,130.32L340.624,141.68L339.21,141.68L339.165,140.407C338.922,140.878 338.575,141.24 338.125,141.493C337.675,141.746 337.159,141.872 336.579,141.872ZM336.797,140.445C337.273,140.445 337.682,140.323 338.026,140.078C338.369,139.834 338.633,139.485 338.818,139.03C339.002,138.576 339.095,138.041 339.095,137.424C339.095,136.799 339.002,136.259 338.818,135.803C338.633,135.348 338.367,135.001 338.019,134.762C337.671,134.523 337.255,134.403 336.771,134.403C336.108,134.403 335.587,134.67 335.208,135.203C334.829,135.737 334.64,136.477 334.64,137.424C334.64,138.363 334.831,139.101 335.214,139.638C335.597,140.176 336.125,140.445 336.797,140.445Z" style="fill-rule:nonzero;"/>
    <path d="M356.032,133.168L357.568,133.168L357.568,141.68L356.032,141.68L356.032,133.168ZM352.656,140.352L360.464,140.352L360.464,141.68L352.656,141.68L352.656,140.352ZM352.816,133.168L357.472,133.168L357.472,134.496L352.816,134.496L352.816,133.168ZM355.92,130.288L357.52,130.288L357.52,131.92L355.92,131.92L355.92,130.288Z" style="fill-rule:nonzero;"/>
    <path d="M367.062,141.68C366.207,141.68 365.57,141.479 365.15,141.077C364.731,140.675 364.521,140.059 364.521,139.229L364.521,130.97L366.051,130.97L366.051,139.191C366.051,139.585 366.143,139.877 366.328,140.066C366.512,140.254 366.794,140.349 367.171,140.349L369.424,140.349L369.424,141.68L367.062,141.68ZM361.808,133.168L369.424,133.168L369.424,134.499L361.808,134.499L361.808,133.168Z" style="fill-rule:nonzero;"/>
    <path d="M374.416,139.632L376.464,139.632L376.464,141.68L374.416,141.68L374.416,139.632ZM374.934,138.237C374.9,137.874 374.865,137.511 374.829,137.149C374.782,136.613 374.742,136.054 374.709,135.472C374.676,134.89 374.659,134.388 374.659,133.968L374.659,130.32L376.221,130.32L376.221,133.968C376.221,134.371 376.204,134.868 376.171,135.459C376.138,136.05 376.102,136.613 376.064,137.149C376.03,137.511 375.995,137.874 375.958,138.237L374.934,138.237Z" style="fill-rule:nonzero;"/>
    <path d="M385.687,130.32L387.197,130.32L387.197,131.619L386.825,135.587L385.754,135.587L385.687,130.32ZM382.883,131.616L382.883,130.32L384.387,130.32L384.323,135.587L383.255,135.587L382.883,131.616Z" style="fill-rule:nonzero;"/>
    <path d="M392.221,143.12C393.375,141.704 394.148,140.203 394.541,138.618C394.933,137.033 394.933,135.447 394.541,133.862C394.148,132.277 393.375,130.777 392.221,129.36L393.555,129.36C394.829,130.732 395.685,132.221 396.125,133.829C396.564,135.436 396.564,137.044 396.125,138.651C395.685,140.259 394.829,141.748 393.555,143.12L392.221,143.12Z" style="fill-rule:nonzero;"/>
    <path d="M403.216,133.568L405.264,133.568L405.264,135.616L403.216,135.616L403.216,133.568ZM404.112,141.68L403.216,141.68L403.216,139.632L405.264,139.632L405.264,141.456L404.24,144.176L403.344,144.176L404.112,141.68Z" style="fill-rule:nonzero;"/>
    <rect x="64" y="72" width="32" height="32" style="fill:none;stroke:black;stroke-width:1.5px;"/>
    <rect x="168" y="120" width="248" height="32" style="fill:none;stroke:black;stroke-width:1.5px;"/>
    <path d="M42.992,85.168L44.528,85.168L44.528,93.68L42.992,93.68L42.992,85.168ZM39.616,92.352L47.424,92.352L47.424,93.68L39.616,93.68L39.616,92.352ZM39.776,85.168L44.432,85.168L44.432,86.496L39.776,86.496L39.776,85.168ZM42.88,82.288L44.48,82.288L44.48,83.92L42.88,83.92L42.88,82.288Z" style="fill:white;fill-rule:nonzero;"/>
    <path d="M51.61,84.727C51.61,83.929 51.809,83.328 52.208,82.925C52.607,82.522 53.218,82.32 54.042,82.32L56.512,82.32L56.512,83.651L54.119,83.651C53.794,83.651 53.55,83.744 53.386,83.928C53.221,84.113 53.139,84.381 53.139,84.733L53.139,93.68L51.61,93.68L51.61,84.727ZM49.088,85.168L56.384,85.168L56.384,86.499L49.088,86.499L49.088,85.168Z" style="fill:white;fill-rule:nonzero;"/>
    <path d="M68.5,66.439L64,70.939L59.5,66.439" style="fill:none;stroke:black;stroke-width:1.5px;stroke-linejoin:miter;stroke-miterlimit:10;"/>
    <path d="M64,40L64,70.939" style="fill:none;stroke:black;stroke-width:1.5px;"/>
    <path d="M295.924,114.439L291.424,118.939L286.924,114.439" style="fill:none;stroke:black;stroke-width:1.5px;stroke-linejoin:miter;stroke-miterlimit:10;"/>
    <path d="M96,88.096L275.424,88.096C279.667,88.096 283.737,89.782 286.738,92.782C289.738,95.783 291.424,99.853 291.424,104.096C291.424,110.312 291.424,116.518 291.424,118.939" style="fill:none;stroke:black;stroke-width:1.5px;"/>
    <path d="M68.5,210.439L64,214.939L59.5,210.439" style="fill:none;stroke:black;stroke-width:1.5px;stroke-linejoin:miter;stroke-miterlimit:10;"/>
    <path d="M64,104L64,214.939" style="fill:none;stroke:black;stroke-width:1.5px;"/>
    <path d="M162.893,80C162.037,80 161.4,79.799 160.981,79.397C160.562,78.995 160.352,78.379 160.352,77.549L160.352,69.289L161.882,69.289L161.882,77.51C161.882,77.905 161.974,78.197 162.158,78.386C162.343,78.574 162.624,78.669 163.002,78.669L165.254,78.669L165.254,80L162.893,80ZM157.638,71.488L165.254,71.488L165.254,72.819L157.638,72.819L157.638,71.488Z" style="fill-rule:nonzero;"/>
    <path d="M170.035,71.488L171.213,71.488L171.354,73.632L171.219,73.613C171.322,72.902 171.552,72.371 171.909,72.018C172.266,71.665 172.751,71.488 173.363,71.488L175.174,71.488L175.174,72.857L173.44,72.857C173.028,72.857 172.682,72.936 172.402,73.093C172.121,73.25 171.912,73.481 171.773,73.787C171.634,74.093 171.565,74.468 171.565,74.912L171.565,80L170.035,80L170.035,71.488ZM167.878,78.669L174.214,78.669L174.214,80L167.878,80L167.878,78.669ZM167.878,71.488L170.854,71.488L170.854,72.819L167.878,72.819L167.878,71.488Z" style="fill-rule:nonzero;"/>
    <path d="M180.154,80.192C179.339,80.192 178.689,79.911 178.205,79.349C177.721,78.787 177.478,78.003 177.478,76.998L177.478,71.488L179.008,71.488L179.008,76.576C179.008,77.361 179.143,77.938 179.414,78.307C179.685,78.676 180.098,78.861 180.653,78.861C181.267,78.861 181.751,78.656 182.106,78.248C182.46,77.839 182.637,77.265 182.637,76.525L182.637,71.488L184.166,71.488L184.166,80L182.72,80L182.701,77.779L182.944,77.875C182.79,78.613 182.472,79.184 181.989,79.587C181.506,79.99 180.894,80.192 180.154,80.192Z" style="fill-rule:nonzero;"/>
    <path d="M190.586,80.192C189.794,80.192 189.102,80.01 188.509,79.646C187.916,79.283 187.459,78.766 187.138,78.096C186.816,77.426 186.656,76.642 186.656,75.744C186.656,74.852 186.816,74.07 187.138,73.397C187.459,72.724 187.911,72.205 188.496,71.842C189.081,71.478 189.76,71.296 190.534,71.296C191.273,71.296 191.932,71.469 192.512,71.816C193.092,72.163 193.546,72.674 193.872,73.35C194.198,74.027 194.362,74.833 194.362,75.769L194.362,76.179L188.266,76.179C188.315,77.026 188.542,77.669 188.947,78.107C189.352,78.546 189.899,78.765 190.586,78.765C191.095,78.765 191.519,78.645 191.856,78.406C192.193,78.167 192.435,77.832 192.582,77.401L194.208,77.536C193.969,78.338 193.529,78.981 192.888,79.466C192.247,79.95 191.479,80.192 190.586,80.192ZM192.688,74.95C192.618,74.219 192.392,73.664 192.011,73.288C191.63,72.911 191.138,72.723 190.534,72.723C189.922,72.723 189.419,72.913 189.026,73.293C188.632,73.673 188.383,74.225 188.278,74.95L192.688,74.95Z" style="fill-rule:nonzero;"/>
    <path d="M74.522,132.631C74.522,131.833 74.721,131.232 75.12,130.829C75.519,130.426 76.13,130.224 76.954,130.224L79.424,130.224L79.424,131.555L77.031,131.555C76.706,131.555 76.462,131.648 76.298,131.832C76.133,132.017 76.051,132.285 76.051,132.637L76.051,141.584L74.522,141.584L74.522,132.631ZM72,133.072L79.296,133.072L79.296,134.403L72,134.403L72,133.072Z" style="fill-rule:nonzero;"/>
    <path d="M84.195,141.776C83.664,141.776 83.182,141.679 82.749,141.485C82.316,141.291 81.973,141.014 81.722,140.654C81.47,140.295 81.344,139.884 81.344,139.421C81.344,138.717 81.561,138.161 81.994,137.752C82.427,137.344 83.093,137.051 83.994,136.874L86.778,136.304C86.778,135.634 86.629,135.133 86.331,134.8C86.034,134.467 85.596,134.301 85.018,134.301C84.478,134.301 84.052,134.42 83.739,134.658C83.427,134.896 83.213,135.248 83.098,135.715L81.498,135.6C81.658,134.768 82.047,134.107 82.666,133.616C83.284,133.125 84.068,132.88 85.018,132.88C86.065,132.88 86.875,133.188 87.448,133.803C88.021,134.419 88.307,135.274 88.307,136.368L88.307,139.722C88.307,139.92 88.348,140.058 88.429,140.136C88.51,140.214 88.644,140.253 88.832,140.253L89.344,140.253L89.344,141.584C89.156,141.614 88.913,141.629 88.615,141.629C88.026,141.629 87.585,141.482 87.293,141.187C87.001,140.893 86.847,140.434 86.832,139.811L87.082,139.811C86.986,140.379 86.663,140.848 86.114,141.219C85.564,141.59 84.925,141.776 84.195,141.776ZM84.365,140.451C84.881,140.451 85.321,140.36 85.683,140.178C86.046,139.995 86.319,139.74 86.502,139.411C86.686,139.083 86.778,138.693 86.778,138.243L86.778,137.559L84.339,138.045C83.834,138.141 83.475,138.289 83.262,138.488C83.05,138.688 82.944,138.956 82.944,139.293C82.944,139.658 83.069,139.942 83.318,140.146C83.568,140.349 83.917,140.451 84.365,140.451Z" style="fill-rule:nonzero;"/>
    <path d="M94.688,132.611C94.688,132.276 94.596,132.017 94.411,131.832C94.227,131.648 93.967,131.555 93.632,131.555L91.648,131.555L91.648,130.224L93.715,130.224C94.541,130.224 95.164,130.435 95.586,130.856C96.007,131.277 96.218,131.901 96.218,132.727L96.218,141.584L94.688,141.584L94.688,132.611ZM91.328,140.253L99.136,140.253L99.136,141.584L91.328,141.584L91.328,140.253Z" style="fill-rule:nonzero;"/>
    <path d="M104.666,141.776C103.945,141.776 103.313,141.65 102.771,141.398C102.229,141.147 101.803,140.804 101.493,140.371C101.182,139.938 101.005,139.45 100.96,138.906L102.541,138.813C102.626,139.301 102.847,139.68 103.205,139.95C103.562,140.22 104.049,140.355 104.666,140.355C105.263,140.355 105.718,140.271 106.032,140.102C106.346,139.934 106.503,139.679 106.503,139.338C106.503,139.103 106.447,138.914 106.336,138.77C106.225,138.626 106.02,138.5 105.722,138.392C105.423,138.284 104.975,138.177 104.378,138.071C103.573,137.923 102.938,137.736 102.472,137.509C102.006,137.282 101.673,137.007 101.472,136.685C101.272,136.363 101.171,135.963 101.171,135.485C101.171,134.99 101.299,134.545 101.555,134.149C101.811,133.753 102.186,133.443 102.678,133.218C103.171,132.993 103.757,132.88 104.435,132.88C105.129,132.88 105.724,133.004 106.221,133.253C106.718,133.501 107.108,133.835 107.392,134.253C107.676,134.671 107.857,135.137 107.936,135.651L106.355,135.747C106.268,135.301 106.057,134.949 105.723,134.69C105.389,134.43 104.958,134.301 104.429,134.301C103.881,134.301 103.461,134.409 103.17,134.626C102.878,134.842 102.733,135.127 102.733,135.479C102.733,135.745 102.801,135.957 102.936,136.114C103.072,136.27 103.285,136.399 103.578,136.501C103.87,136.602 104.288,136.703 104.832,136.803C105.673,136.946 106.326,137.124 106.792,137.338C107.258,137.551 107.587,137.815 107.778,138.131C107.969,138.447 108.064,138.849 108.064,139.338C108.064,140.086 107.749,140.68 107.118,141.118C106.488,141.557 105.67,141.776 104.666,141.776Z" style="fill-rule:nonzero;"/>
    <path d="M114.227,141.776C113.436,141.776 112.743,141.594 112.15,141.23C111.557,140.867 111.1,140.35 110.779,139.68C110.458,139.01 110.298,138.226 110.298,137.328C110.298,136.436 110.458,135.654 110.779,134.981C111.1,134.308 111.553,133.789 112.138,133.426C112.722,133.062 113.402,132.88 114.176,132.88C114.914,132.88 115.573,133.053 116.154,133.4C116.734,133.747 117.187,134.258 117.514,134.934C117.84,135.611 118.003,136.417 118.003,137.354L118.003,137.763L111.907,137.763C111.956,138.61 112.183,139.253 112.589,139.691C112.994,140.13 113.54,140.349 114.227,140.349C114.737,140.349 115.161,140.229 115.498,139.99C115.835,139.751 116.077,139.417 116.224,138.986L117.85,139.12C117.611,139.922 117.171,140.565 116.53,141.05C115.889,141.534 115.121,141.776 114.227,141.776ZM116.33,136.535C116.259,135.803 116.034,135.249 115.653,134.872C115.272,134.496 114.78,134.307 114.176,134.307C113.564,134.307 113.061,134.497 112.667,134.877C112.274,135.257 112.025,135.809 111.92,136.535L116.33,136.535Z" style="fill-rule:nonzero;"/>
    <path d="M292,152L292,167.999C292,172.243 290.314,176.312 287.313,179.313C284.312,182.314 280.243,183.999 275.999,183.999C234.156,183.996 121.844,183.988 80.001,183.985C75.757,183.985 71.688,185.67 68.687,188.671C65.686,191.672 64,195.741 64,199.985C64,207.991 64,216 64,216" style="fill:none;stroke:black;stroke-width:1.5px;"/>
    <circle cx="64" cy="32" r="8" style="fill:none;stroke:black;stroke-width:1.5px;"/>
    <circle cx="64" cy="224" r="8" style="fill:none;stroke:black;stroke-width:1.5px;"/>
</svg>
