<?xml version="1.0" encoding="UTF-8" standalone="no"?>
<!DOCTYPE svg PUBLIC "-//W3C//DTD SVG 1.1//EN" "http://www.w3.org/Graphics/SVG/1.1/DTD/svg11.dtd">
<svg width="100%" height="100%" viewBox="0 0 472 448" version="1.1" xmlns="http://www.w3.org/2000/svg" xmlns:xlink="http://www.w3.org/1999/xlink" xml:space="preserve" xmlns:serif="http://www.serif.com/" style="fill-rule:evenodd;clip-rule:evenodd;stroke-linecap:round;stroke-linejoin:round;stroke-miterlimit:1.5;">
    <rect id="if" x="0" y="0" width="472" height="448" style="fill:rgb(246,248,250);"/>
    <rect x="32" y="136" width="32" height="32" style="stroke:black;stroke-width:1.5px;"/>
    <path d="M79.232,149.168L80.768,149.168L80.768,157.68L79.232,157.68L79.232,149.168ZM75.856,156.352L83.664,156.352L83.664,157.68L75.856,157.68L75.856,156.352ZM76.016,149.168L80.672,149.168L80.672,150.496L76.016,150.496L76.016,149.168ZM79.12,146.288L80.72,146.288L80.72,147.92L79.12,147.92L79.12,146.288Z" style="fill-rule:nonzero;"/>
    <path d="M94.979,153.689L94.979,151.757L102.285,148.541L102.285,150.089L95.974,152.873L95.974,152.569L102.285,155.353L102.285,156.905L94.979,153.689Z" style="fill-rule:nonzero;"/>
    <path d="M117.814,157.936C117.07,157.936 116.415,157.799 115.849,157.526C115.284,157.253 114.837,156.874 114.509,156.389C114.18,155.903 113.989,155.346 113.936,154.717L115.581,154.621C115.653,155.214 115.884,155.665 116.273,155.974C116.663,156.284 117.176,156.438 117.814,156.438C118.525,156.438 119.083,156.221 119.49,155.786C119.896,155.35 120.099,154.757 120.099,154.006C120.099,153.255 119.897,152.658 119.493,152.214C119.089,151.771 118.538,151.549 117.84,151.549C117.4,151.549 116.989,151.657 116.605,151.874C116.221,152.09 115.943,152.385 115.773,152.758L114.115,152.745L114.877,146.32L121.11,146.32L121.11,147.811L116.278,147.811L115.785,151.827L115.504,151.581C115.747,151.118 116.108,150.759 116.586,150.504C117.064,150.249 117.567,150.121 118.096,150.121C118.817,150.121 119.455,150.289 120.009,150.624C120.564,150.959 120.992,151.421 121.293,152.01C121.594,152.598 121.744,153.265 121.744,154.009C121.744,154.775 121.578,155.456 121.246,156.05C120.915,156.644 120.451,157.107 119.856,157.438C119.261,157.77 118.58,157.936 117.814,157.936Z" style="fill-rule:nonzero;"/>
    <path d="M203.888,197.168L205.321,197.168L205.363,199.107L205.165,198.985C205.374,198.339 205.72,197.843 206.202,197.496C206.684,197.149 207.254,196.976 207.913,196.976C208.694,196.976 209.351,197.174 209.885,197.571C210.418,197.968 210.817,198.503 211.082,199.176C211.346,199.849 211.478,200.598 211.478,201.424C211.478,202.25 211.346,202.999 211.082,203.672C210.817,204.345 210.418,204.88 209.885,205.277C209.351,205.674 208.694,205.872 207.913,205.872C207.483,205.872 207.083,205.797 206.714,205.648C206.345,205.499 206.03,205.286 205.771,205.011C205.512,204.736 205.326,204.415 205.213,204.048L205.417,203.827L205.417,208.08L203.888,208.08L203.888,197.168ZM207.664,204.445C208.353,204.445 208.893,204.18 209.285,203.651C209.676,203.122 209.872,202.38 209.872,201.424C209.872,200.468 209.676,199.726 209.285,199.197C208.893,198.668 208.353,198.403 207.664,198.403C207.205,198.403 206.806,198.518 206.467,198.749C206.128,198.979 205.868,199.32 205.688,199.771C205.508,200.222 205.417,200.773 205.417,201.424C205.417,202.075 205.508,202.625 205.688,203.075C205.868,203.525 206.126,203.866 206.461,204.098C206.796,204.329 207.197,204.445 207.664,204.445Z" style="fill-rule:nonzero;"/>
    <path d="M215.805,197.168L216.982,197.168L217.123,199.312L216.989,199.293C217.091,198.582 217.321,198.051 217.678,197.698C218.036,197.345 218.521,197.168 219.133,197.168L220.944,197.168L220.944,198.537L219.209,198.537C218.798,198.537 218.452,198.616 218.171,198.773C217.891,198.93 217.681,199.161 217.542,199.467C217.404,199.773 217.334,200.148 217.334,200.592L217.334,205.68L215.805,205.68L215.805,197.168ZM213.648,204.349L219.984,204.349L219.984,205.68L213.648,205.68L213.648,204.349ZM213.648,197.168L216.624,197.168L216.624,198.499L213.648,198.499L213.648,197.168Z" style="fill-rule:nonzero;"/>
    <path d="M226.432,197.168L227.968,197.168L227.968,205.68L226.432,205.68L226.432,197.168ZM223.056,204.352L230.864,204.352L230.864,205.68L223.056,205.68L223.056,204.352ZM223.216,197.168L227.872,197.168L227.872,198.496L223.216,198.496L223.216,197.168ZM226.32,194.288L227.92,194.288L227.92,195.92L226.32,195.92L226.32,194.288Z" style="fill-rule:nonzero;"/>
    <path d="M232.95,197.168L234.342,197.168L234.397,199.389L234.217,199.261C234.365,198.508 234.684,197.939 235.176,197.554C235.668,197.169 236.259,196.976 236.95,196.976C237.861,196.976 238.556,197.273 239.035,197.866C239.514,198.459 239.753,199.234 239.753,200.192L239.753,205.68L238.224,205.68L238.224,200.617C238.224,199.845 238.093,199.267 237.83,198.883C237.568,198.499 237.142,198.307 236.553,198.307C235.935,198.307 235.435,198.511 235.053,198.92C234.671,199.328 234.48,199.905 234.48,200.649L234.48,205.68L232.95,205.68L232.95,197.168Z" style="fill-rule:nonzero;"/>
    <path d="M247.062,205.68C246.207,205.68 245.57,205.479 245.15,205.077C244.731,204.675 244.521,204.059 244.521,203.229L244.521,194.969L246.051,194.969L246.051,203.19C246.051,203.585 246.143,203.877 246.328,204.066C246.512,204.254 246.794,204.349 247.171,204.349L249.424,204.349L249.424,205.68L247.062,205.68ZM241.808,197.168L249.424,197.168L249.424,198.499L241.808,198.499L241.808,197.168Z" style="fill-rule:nonzero;"/>
    <path d="M255.216,196.707C255.216,196.372 255.124,196.112 254.939,195.928C254.755,195.743 254.495,195.651 254.16,195.651L252.176,195.651L252.176,194.32L254.243,194.32C255.069,194.32 255.692,194.531 256.113,194.952C256.535,195.373 256.745,195.997 256.745,196.822L256.745,205.68L255.216,205.68L255.216,196.707ZM251.856,204.349L259.664,204.349L259.664,205.68L251.856,205.68L251.856,204.349Z" style="fill-rule:nonzero;"/>
    <path d="M261.75,197.168L263.142,197.168L263.197,199.389L263.017,199.261C263.165,198.508 263.484,197.939 263.976,197.554C264.468,197.169 265.059,196.976 265.75,196.976C266.661,196.976 267.356,197.273 267.835,197.866C268.314,198.459 268.553,199.234 268.553,200.192L268.553,205.68L267.024,205.68L267.024,200.617C267.024,199.845 266.893,199.267 266.63,198.883C266.368,198.499 265.942,198.307 265.353,198.307C264.735,198.307 264.235,198.511 263.853,198.92C263.471,199.328 263.28,199.905 263.28,200.649L263.28,205.68L261.75,205.68L261.75,197.168Z" style="fill-rule:nonzero;"/>
    <path d="M273.616,203.632L275.664,203.632L275.664,205.68L273.616,205.68L273.616,203.632ZM274.134,202.237C274.1,201.874 274.065,201.511 274.029,201.149C273.982,200.613 273.942,200.054 273.909,199.472C273.876,198.89 273.859,198.388 273.859,197.968L273.859,194.32L275.421,194.32L275.421,197.968C275.421,198.371 275.404,198.868 275.371,199.459C275.338,200.05 275.302,200.613 275.264,201.149C275.23,201.511 275.195,201.874 275.158,202.237L274.134,202.237Z" style="fill-rule:nonzero;"/>
    <path d="M285.325,207.12C284.051,205.748 283.195,204.259 282.755,202.651C282.316,201.044 282.316,199.436 282.755,197.829C283.195,196.221 284.051,194.732 285.325,193.36L286.659,193.36C285.505,194.776 284.732,196.277 284.339,197.862C283.947,199.447 283.947,201.033 284.339,202.618C284.732,204.203 285.505,205.703 286.659,207.12L285.325,207.12Z" style="fill-rule:nonzero;"/>
    <path d="M294.486,194.32L295.997,194.32L295.997,195.619L295.625,199.587L294.553,199.587L294.486,194.32ZM291.683,195.616L291.683,194.32L293.187,194.32L293.123,199.587L292.054,199.587L291.683,195.616Z" style="fill-rule:nonzero;"/>
    <path d="M299.664,194.32L301.232,194.32L301.232,199.795L300.563,199.248L306.317,199.248L305.648,199.795L305.648,194.32L307.216,194.32L307.216,205.68L305.648,205.68L305.648,200.141L306.317,200.713L300.563,200.713L301.232,200.141L301.232,205.68L299.664,205.68L299.664,194.32Z" style="fill-rule:nonzero;"/>
    <path d="M313.155,205.872C312.364,205.872 311.671,205.69 311.078,205.326C310.485,204.963 310.028,204.446 309.707,203.776C309.386,203.106 309.225,202.322 309.225,201.424C309.225,200.532 309.386,199.75 309.707,199.077C310.028,198.404 310.481,197.885 311.066,197.522C311.65,197.158 312.33,196.976 313.104,196.976C313.842,196.976 314.501,197.149 315.082,197.496C315.662,197.843 316.115,198.354 316.442,199.03C316.768,199.707 316.931,200.513 316.931,201.449L316.931,201.859L310.835,201.859C310.884,202.706 311.111,203.349 311.517,203.787C311.922,204.226 312.468,204.445 313.155,204.445C313.665,204.445 314.089,204.325 314.426,204.086C314.763,203.847 315.005,203.512 315.152,203.081L316.777,203.216C316.539,204.018 316.099,204.661 315.458,205.146C314.817,205.63 314.049,205.872 313.155,205.872ZM315.257,200.63C315.187,199.899 314.962,199.344 314.581,198.968C314.2,198.591 313.708,198.403 313.104,198.403C312.492,198.403 311.989,198.593 311.595,198.973C311.202,199.353 310.952,199.905 310.848,200.63L315.257,200.63Z" style="fill-rule:nonzero;"/>
    <path d="M322.416,196.707C322.416,196.372 322.324,196.112 322.139,195.928C321.955,195.743 321.695,195.651 321.36,195.651L319.376,195.651L319.376,194.32L321.443,194.32C322.269,194.32 322.892,194.531 323.313,194.952C323.735,195.373 323.945,195.997 323.945,196.822L323.945,205.68L322.416,205.68L322.416,196.707ZM319.056,204.349L326.864,204.349L326.864,205.68L319.056,205.68L319.056,204.349Z" style="fill-rule:nonzero;"/>
    <path d="M332.016,196.707C332.016,196.372 331.924,196.112 331.739,195.928C331.555,195.743 331.295,195.651 330.96,195.651L328.976,195.651L328.976,194.32L331.043,194.32C331.869,194.32 332.492,194.531 332.913,194.952C333.335,195.373 333.545,195.997 333.545,196.822L333.545,205.68L332.016,205.68L332.016,196.707ZM328.656,204.349L336.464,204.349L336.464,205.68L328.656,205.68L328.656,204.349Z" style="fill-rule:nonzero;"/>
    <path d="M341.84,205.872C341.057,205.872 340.371,205.69 339.782,205.326C339.194,204.963 338.737,204.446 338.411,203.776C338.086,203.106 337.923,202.322 337.923,201.424C337.923,200.526 338.086,199.742 338.411,199.072C338.737,198.402 339.194,197.885 339.782,197.522C340.371,197.158 341.057,196.976 341.84,196.976C342.614,196.976 343.298,197.158 343.891,197.522C344.484,197.885 344.943,198.402 345.269,199.072C345.594,199.742 345.757,200.526 345.757,201.424C345.757,202.322 345.594,203.106 345.269,203.776C344.943,204.446 344.484,204.963 343.891,205.326C343.298,205.69 342.614,205.872 341.84,205.872ZM341.84,204.445C342.57,204.445 343.137,204.176 343.542,203.64C343.948,203.103 344.15,202.365 344.15,201.424C344.15,200.483 343.948,199.744 343.542,199.208C343.137,198.671 342.57,198.403 341.84,198.403C341.11,198.403 340.543,198.669 340.137,199.202C339.732,199.734 339.529,200.475 339.529,201.424C339.529,202.373 339.732,203.114 340.137,203.646C340.543,204.179 341.11,204.445 341.84,204.445Z" style="fill-rule:nonzero;"/>
    <path d="M356.816,194.32L358.441,194.32L359.273,204.144L359.126,204.144L360.329,195.6L361.75,195.6L362.953,204.144L362.806,204.144L363.638,194.32L365.264,194.32L364.137,205.68L362.025,205.68L360.79,197.04L361.289,197.04L360.054,205.68L357.942,205.68L356.816,194.32Z" style="fill-rule:nonzero;"/>
    <path d="M370.64,205.872C369.857,205.872 369.171,205.69 368.582,205.326C367.994,204.963 367.537,204.446 367.211,203.776C366.886,203.106 366.723,202.322 366.723,201.424C366.723,200.526 366.886,199.742 367.211,199.072C367.537,198.402 367.994,197.885 368.582,197.522C369.171,197.158 369.857,196.976 370.64,196.976C371.414,196.976 372.098,197.158 372.691,197.522C373.284,197.885 373.743,198.402 374.069,199.072C374.394,199.742 374.557,200.526 374.557,201.424C374.557,202.322 374.394,203.106 374.069,203.776C373.743,204.446 373.284,204.963 372.691,205.326C372.098,205.69 371.414,205.872 370.64,205.872ZM370.64,204.445C371.37,204.445 371.937,204.176 372.342,203.64C372.748,203.103 372.95,202.365 372.95,201.424C372.95,200.483 372.748,199.744 372.342,199.208C371.937,198.671 371.37,198.403 370.64,198.403C369.91,198.403 369.343,198.669 368.937,199.202C368.532,199.734 368.329,200.475 368.329,201.424C368.329,202.373 368.532,203.114 368.937,203.646C369.343,204.179 369.91,204.445 370.64,204.445Z" style="fill-rule:nonzero;"/>
    <path d="M379.005,197.168L380.182,197.168L380.323,199.312L380.189,199.293C380.291,198.582 380.521,198.051 380.878,197.698C381.236,197.345 381.721,197.168 382.333,197.168L384.144,197.168L384.144,198.537L382.409,198.537C381.998,198.537 381.652,198.616 381.371,198.773C381.091,198.93 380.881,199.161 380.742,199.467C380.604,199.773 380.534,200.148 380.534,200.592L380.534,205.68L379.005,205.68L379.005,197.168ZM376.848,204.349L383.184,204.349L383.184,205.68L376.848,205.68L376.848,204.349ZM376.848,197.168L379.824,197.168L379.824,198.499L376.848,198.499L376.848,197.168Z" style="fill-rule:nonzero;"/>
    <path d="M389.616,196.707C389.616,196.372 389.524,196.112 389.339,195.928C389.155,195.743 388.895,195.651 388.56,195.651L386.576,195.651L386.576,194.32L388.643,194.32C389.469,194.32 390.092,194.531 390.513,194.952C390.935,195.373 391.145,195.997 391.145,196.822L391.145,205.68L389.616,205.68L389.616,196.707ZM386.256,204.349L394.064,204.349L394.064,205.68L386.256,205.68L386.256,204.349Z" style="fill-rule:nonzero;"/>
    <path d="M398.979,205.872C398.262,205.872 397.636,205.69 397.099,205.326C396.563,204.963 396.151,204.446 395.864,203.776C395.577,203.106 395.433,202.322 395.433,201.424C395.433,200.526 395.577,199.742 395.864,199.072C396.151,198.402 396.563,197.885 397.099,197.522C397.636,197.158 398.262,196.976 398.979,196.976C399.527,196.976 400.027,197.107 400.477,197.368C400.927,197.629 401.266,197.96 401.494,198.361L401.494,194.32L403.024,194.32L403.024,205.68L401.609,205.68L401.565,204.406C401.322,204.878 400.975,205.24 400.525,205.493C400.075,205.746 399.559,205.872 398.979,205.872ZM399.197,204.445C399.673,204.445 400.082,204.323 400.426,204.078C400.769,203.834 401.033,203.485 401.218,203.03C401.402,202.576 401.494,202.04 401.494,201.424C401.494,200.799 401.402,200.259 401.218,199.803C401.033,199.348 400.767,199.001 400.419,198.762C400.071,198.523 399.655,198.403 399.171,198.403C398.508,198.403 397.987,198.67 397.608,199.203C397.229,199.737 397.04,200.477 397.04,201.424C397.04,202.363 397.231,203.101 397.614,203.638C397.997,204.176 398.525,204.445 399.197,204.445Z" style="fill-rule:nonzero;"/>
    <path d="M409.686,194.32L411.197,194.32L411.197,195.619L410.825,199.587L409.753,199.587L409.686,194.32ZM406.883,195.616L406.883,194.32L408.387,194.32L408.323,199.587L407.254,199.587L406.883,195.616Z" style="fill-rule:nonzero;"/>
    <path d="M416.221,207.12C417.375,205.703 418.148,204.203 418.541,202.618C418.933,201.033 418.933,199.447 418.541,197.862C418.148,196.277 417.375,194.776 416.221,193.36L417.555,193.36C418.829,194.732 419.685,196.221 420.125,197.829C420.564,199.436 420.564,201.044 420.125,202.651C419.685,204.259 418.829,205.748 417.555,207.12L416.221,207.12Z" style="fill-rule:nonzero;"/>
    <path d="M427.216,197.568L429.264,197.568L429.264,199.616L427.216,199.616L427.216,197.568ZM428.112,205.68L427.216,205.68L427.216,203.632L429.264,203.632L429.264,205.456L428.24,208.176L427.344,208.176L428.112,205.68Z" style="fill-rule:nonzero;"/>
    <path d="M47.216,84.707C47.216,84.372 47.124,84.112 46.939,83.928C46.755,83.743 46.495,83.651 46.16,83.651L44.176,83.651L44.176,82.32L46.243,82.32C47.069,82.32 47.692,82.531 48.113,82.952C48.535,83.373 48.745,83.997 48.745,84.822L48.745,93.68L47.216,93.68L47.216,84.707ZM43.856,92.349L51.664,92.349L51.664,93.68L43.856,93.68L43.856,92.349Z" style="fill-rule:nonzero;"/>
    <path d="M57.155,93.872C56.364,93.872 55.671,93.69 55.078,93.326C54.485,92.963 54.028,92.446 53.707,91.776C53.386,91.106 53.225,90.322 53.225,89.424C53.225,88.532 53.386,87.75 53.707,87.077C54.028,86.404 54.481,85.885 55.066,85.522C55.65,85.158 56.33,84.976 57.104,84.976C57.842,84.976 58.501,85.149 59.082,85.496C59.662,85.843 60.115,86.354 60.442,87.03C60.768,87.707 60.931,88.513 60.931,89.449L60.931,89.859L54.835,89.859C54.884,90.706 55.111,91.349 55.517,91.787C55.922,92.226 56.468,92.445 57.155,92.445C57.665,92.445 58.089,92.325 58.426,92.086C58.763,91.847 59.005,91.512 59.152,91.081L60.777,91.216C60.539,92.018 60.099,92.661 59.458,93.146C58.817,93.63 58.049,93.872 57.155,93.872ZM59.257,88.63C59.187,87.899 58.962,87.344 58.581,86.968C58.2,86.591 57.708,86.403 57.104,86.403C56.492,86.403 55.989,86.593 55.595,86.973C55.202,87.353 54.952,87.905 54.848,88.63L59.257,88.63Z" style="fill-rule:nonzero;"/>
    <path d="M67.862,93.68C67.007,93.68 66.37,93.479 65.95,93.077C65.531,92.675 65.321,92.059 65.321,91.229L65.321,82.969L66.851,82.969L66.851,91.19C66.851,91.585 66.943,91.877 67.128,92.066C67.312,92.254 67.594,92.349 67.971,92.349L70.224,92.349L70.224,93.68L67.862,93.68ZM62.608,85.168L70.224,85.168L70.224,86.499L62.608,86.499L62.608,85.168Z" style="fill-rule:nonzero;"/>
    <path d="M81.616,85.168L82.982,85.168L83.04,87.065L82.857,87.027C82.962,86.391 83.179,85.891 83.509,85.525C83.838,85.159 84.242,84.976 84.72,84.976C85.208,84.976 85.59,85.155 85.866,85.514C86.141,85.872 86.316,86.405 86.39,87.113L86.205,87.113C86.309,86.448 86.528,85.925 86.861,85.546C87.194,85.166 87.615,84.976 88.125,84.976C88.803,84.976 89.296,85.218 89.603,85.701C89.91,86.184 90.064,86.964 90.064,88.041L90.064,93.68L88.541,93.68L88.541,88.233C88.541,87.534 88.47,87.038 88.328,86.746C88.186,86.453 87.959,86.307 87.648,86.307C87.43,86.307 87.244,86.377 87.089,86.517C86.935,86.657 86.815,86.871 86.729,87.16C86.644,87.449 86.601,87.815 86.601,88.259L86.601,93.68L85.078,93.68L85.078,88.233C85.078,87.547 85.009,87.054 84.87,86.755C84.732,86.457 84.502,86.307 84.182,86.307C83.965,86.307 83.779,86.377 83.624,86.517C83.469,86.657 83.35,86.871 83.266,87.16C83.181,87.449 83.139,87.815 83.139,88.259L83.139,93.68L81.616,93.68L81.616,85.168Z" style="fill-rule:nonzero;"/>
    <path d="M94.723,93.872C93.908,93.872 93.259,93.591 92.774,93.029C92.29,92.467 92.048,91.683 92.048,90.678L92.048,85.168L93.577,85.168L93.577,90.256C93.577,91.041 93.713,91.618 93.984,91.987C94.255,92.356 94.668,92.541 95.222,92.541C95.837,92.541 96.321,92.336 96.675,91.928C97.029,91.519 97.206,90.945 97.206,90.205L97.206,85.168L98.736,85.168L98.736,93.68L97.289,93.68L97.27,91.459L97.513,91.555C97.36,92.293 97.042,92.864 96.558,93.267C96.075,93.67 95.463,93.872 94.723,93.872Z" style="fill-rule:nonzero;"/>
    <path d="M106.262,93.68C105.407,93.68 104.77,93.479 104.35,93.077C103.931,92.675 103.721,92.059 103.721,91.229L103.721,82.969L105.251,82.969L105.251,91.19C105.251,91.585 105.343,91.877 105.528,92.066C105.712,92.254 105.994,92.349 106.371,92.349L108.624,92.349L108.624,93.68L106.262,93.68ZM101.008,85.168L108.624,85.168L108.624,86.499L101.008,86.499L101.008,85.168Z" style="fill-rule:nonzero;"/>
    <path d="M124.032,85.168L125.568,85.168L125.568,93.68L124.032,93.68L124.032,85.168ZM120.656,92.352L128.464,92.352L128.464,93.68L120.656,93.68L120.656,92.352ZM120.816,85.168L125.472,85.168L125.472,86.496L120.816,86.496L120.816,85.168ZM123.92,82.288L125.52,82.288L125.52,83.92L123.92,83.92L123.92,82.288Z" style="fill-rule:nonzero;"/>
    <path d="M132.816,91.632L134.864,91.632L134.864,93.68L132.816,93.68L132.816,91.632ZM132.816,85.568L134.864,85.568L134.864,87.616L132.816,87.616L132.816,85.568Z" style="fill-rule:nonzero;"/>
    <path d="M152.832,85.168L154.368,85.168L154.368,93.68L152.832,93.68L152.832,85.168ZM149.456,92.352L157.264,92.352L157.264,93.68L149.456,93.68L149.456,92.352ZM149.616,85.168L154.272,85.168L154.272,86.496L149.616,86.496L149.616,85.168ZM152.72,82.288L154.32,82.288L154.32,83.92L152.72,83.92L152.72,82.288Z" style="fill-rule:nonzero;"/>
    <path d="M162.563,93.936C161.343,93.936 160.392,93.642 159.712,93.053C159.031,92.464 158.663,91.675 158.608,90.685L160.227,90.582C160.287,91.214 160.523,91.681 160.936,91.984C161.349,92.287 161.891,92.438 162.563,92.438C163.282,92.438 163.872,92.278 164.334,91.958C164.796,91.638 165.027,91.141 165.027,90.467C165.027,90.004 164.928,89.62 164.73,89.314C164.531,89.008 164.252,88.779 163.893,88.627C163.533,88.476 163.118,88.4 162.646,88.4L161.731,88.4L161.731,86.934L162.646,86.934C163.235,86.934 163.714,86.799 164.083,86.528C164.452,86.257 164.637,85.838 164.637,85.27C164.637,84.707 164.463,84.281 164.117,83.993C163.77,83.705 163.271,83.561 162.621,83.561C161.964,83.561 161.46,83.693 161.11,83.955C160.76,84.218 160.549,84.598 160.477,85.097L158.838,84.995C158.947,84.097 159.331,83.384 159.99,82.856C160.65,82.328 161.526,82.064 162.621,82.064C163.361,82.064 164.009,82.189 164.563,82.44C165.118,82.691 165.543,83.05 165.838,83.517C166.134,83.984 166.281,84.532 166.281,85.161C166.281,85.87 166.063,86.438 165.627,86.867C165.191,87.296 164.546,87.587 163.693,87.741L163.693,87.446C164.614,87.562 165.341,87.892 165.874,88.438C166.406,88.984 166.672,89.676 166.672,90.512C166.672,91.222 166.498,91.833 166.15,92.345C165.803,92.857 165.319,93.251 164.699,93.525C164.079,93.799 163.367,93.936 162.563,93.936Z" style="fill-rule:nonzero;"/>
    <path d="M168.208,93.68C168.208,92.82 168.334,92.065 168.587,91.414C168.84,90.764 169.277,90.152 169.899,89.579C170.521,89.006 171.38,88.428 172.477,87.843C173.038,87.547 173.468,87.286 173.768,87.062C174.068,86.838 174.287,86.6 174.427,86.347C174.567,86.094 174.637,85.783 174.637,85.414C174.637,84.847 174.455,84.391 174.091,84.046C173.727,83.702 173.204,83.529 172.521,83.529C171.768,83.529 171.169,83.728 170.723,84.126C170.277,84.524 169.999,85.101 169.888,85.856L168.265,85.75C168.389,84.605 168.82,83.704 169.558,83.048C170.296,82.392 171.283,82.064 172.518,82.064C173.291,82.064 173.959,82.203 174.523,82.482C175.087,82.76 175.518,83.149 175.814,83.65C176.111,84.15 176.259,84.727 176.259,85.382C176.259,85.969 176.164,86.468 175.973,86.88C175.782,87.292 175.468,87.678 175.03,88.038C174.593,88.399 173.974,88.79 173.174,89.213C172.208,89.723 171.464,90.242 170.942,90.771C170.421,91.3 170.144,91.773 170.112,92.189L176.272,92.189L176.272,93.68L168.208,93.68Z" style="fill-rule:nonzero;"/>
    <path d="M187.897,86.336L194.982,86.336L194.982,87.747L187.897,87.747L187.897,86.336ZM187.897,89.936L194.982,89.936L194.982,91.347L187.897,91.347L187.897,89.936Z" style="fill-rule:nonzero;"/>
    <path d="M210.64,93.936C209.812,93.936 209.097,93.701 208.494,93.23C207.892,92.76 207.427,92.079 207.099,91.189C206.772,90.298 206.608,89.24 206.608,88.016C206.608,86.791 206.772,85.731 207.099,84.835C207.427,83.939 207.894,83.253 208.501,82.778C209.108,82.302 209.821,82.064 210.64,82.064C211.459,82.064 212.172,82.302 212.779,82.778C213.386,83.253 213.853,83.939 214.181,84.835C214.508,85.731 214.672,86.791 214.672,88.016C214.672,89.24 214.508,90.298 214.181,91.189C213.853,92.079 213.388,92.76 212.785,93.23C212.183,93.701 211.468,93.936 210.64,93.936ZM210.64,92.445C211.139,92.445 211.568,92.268 211.926,91.915C212.285,91.562 212.558,91.053 212.746,90.389C212.933,89.724 213.027,88.933 213.027,88.016C213.027,87.099 212.933,86.305 212.746,85.635C212.558,84.965 212.283,84.451 211.92,84.093C211.557,83.734 211.131,83.555 210.64,83.555C210.149,83.555 209.723,83.734 209.36,84.093C208.997,84.451 208.722,84.965 208.534,85.635C208.347,86.305 208.253,87.099 208.253,88.016C208.253,88.933 208.347,89.724 208.534,90.389C208.722,91.053 208.995,91.562 209.354,91.915C209.712,92.268 210.141,92.445 210.64,92.445ZM212.182,83.939L213.462,84.022L209.097,92.061L207.817,91.977L212.182,83.939Z" style="fill-rule:nonzero;"/>
    <path d="M219.216,85.568L221.264,85.568L221.264,87.616L219.216,87.616L219.216,85.568ZM220.112,93.68L219.216,93.68L219.216,91.632L221.264,91.632L221.264,93.456L220.24,96.176L219.344,96.176L220.112,93.68Z" style="fill-rule:nonzero;"/>
    <rect x="64" y="136" width="72" height="32" style="fill:none;stroke:black;stroke-width:1.5px;"/>
    <rect x="192" y="184" width="248" height="32" style="fill:none;stroke:black;stroke-width:1.5px;"/>
    <path d="M43.888,357.168L45.322,357.168L45.363,359.107L45.165,358.985C45.374,358.339 45.72,357.843 46.202,357.496C46.684,357.149 47.254,356.976 47.914,356.976C48.694,356.976 49.351,357.174 49.885,357.571C50.418,357.968 50.817,358.503 51.082,359.176C51.346,359.849 51.479,360.598 51.479,361.424C51.479,362.25 51.346,362.999 51.082,363.672C50.817,364.345 50.418,364.88 49.885,365.277C49.351,365.674 48.694,365.872 47.914,365.872C47.483,365.872 47.083,365.797 46.714,365.648C46.345,365.499 46.03,365.286 45.771,365.011C45.512,364.736 45.326,364.415 45.213,364.048L45.418,363.827L45.418,368.08L43.888,368.08L43.888,357.168ZM47.664,364.445C48.353,364.445 48.893,364.18 49.285,363.651C49.676,363.122 49.872,362.38 49.872,361.424C49.872,360.468 49.676,359.726 49.285,359.197C48.893,358.668 48.353,358.403 47.664,358.403C47.205,358.403 46.806,358.518 46.467,358.749C46.128,358.979 45.868,359.32 45.688,359.771C45.508,360.222 45.418,360.773 45.418,361.424C45.418,362.075 45.508,362.625 45.688,363.075C45.868,363.525 46.126,363.866 46.461,364.098C46.796,364.329 47.197,364.445 47.664,364.445Z" style="fill-rule:nonzero;"/>
    <path d="M55.805,357.168L56.983,357.168L57.123,359.312L56.989,359.293C57.091,358.582 57.321,358.051 57.679,357.698C58.036,357.345 58.521,357.168 59.133,357.168L60.944,357.168L60.944,358.537L59.21,358.537C58.798,358.537 58.452,358.616 58.171,358.773C57.891,358.93 57.681,359.161 57.543,359.467C57.404,359.773 57.335,360.148 57.335,360.592L57.335,365.68L55.805,365.68L55.805,357.168ZM53.648,364.349L59.984,364.349L59.984,365.68L53.648,365.68L53.648,364.349ZM53.648,357.168L56.624,357.168L56.624,358.499L53.648,358.499L53.648,357.168Z" style="fill-rule:nonzero;"/>
    <path d="M66.432,357.168L67.968,357.168L67.968,365.68L66.432,365.68L66.432,357.168ZM63.056,364.352L70.864,364.352L70.864,365.68L63.056,365.68L63.056,364.352ZM63.216,357.168L67.872,357.168L67.872,358.496L63.216,358.496L63.216,357.168ZM66.32,354.288L67.92,354.288L67.92,355.92L66.32,355.92L66.32,354.288Z" style="fill-rule:nonzero;"/>
    <path d="M72.951,357.168L74.343,357.168L74.397,359.389L74.218,359.261C74.365,358.508 74.684,357.939 75.176,357.554C75.668,357.169 76.259,356.976 76.951,356.976C77.861,356.976 78.556,357.273 79.035,357.866C79.514,358.459 79.754,359.234 79.754,360.192L79.754,365.68L78.224,365.68L78.224,360.617C78.224,359.845 78.093,359.267 77.83,358.883C77.568,358.499 77.142,358.307 76.554,358.307C75.935,358.307 75.435,358.511 75.053,358.92C74.671,359.328 74.48,359.905 74.48,360.649L74.48,365.68L72.951,365.68L72.951,357.168Z" style="fill-rule:nonzero;"/>
    <path d="M87.063,365.68C86.207,365.68 85.57,365.479 85.15,365.077C84.731,364.675 84.522,364.059 84.522,363.229L84.522,354.969L86.051,354.969L86.051,363.19C86.051,363.585 86.144,363.877 86.328,364.066C86.513,364.254 86.794,364.349 87.171,364.349L89.424,364.349L89.424,365.68L87.063,365.68ZM81.808,357.168L89.424,357.168L89.424,358.499L81.808,358.499L81.808,357.168Z" style="fill-rule:nonzero;"/>
    <path d="M95.216,356.707C95.216,356.372 95.124,356.112 94.939,355.928C94.755,355.743 94.495,355.651 94.16,355.651L92.176,355.651L92.176,354.32L94.243,354.32C95.069,354.32 95.692,354.531 96.114,354.952C96.535,355.373 96.746,355.997 96.746,356.822L96.746,365.68L95.216,365.68L95.216,356.707ZM91.856,364.349L99.664,364.349L99.664,365.68L91.856,365.68L91.856,364.349Z" style="fill-rule:nonzero;"/>
    <path d="M101.751,357.168L103.143,357.168L103.197,359.389L103.018,359.261C103.165,358.508 103.484,357.939 103.976,357.554C104.468,357.169 105.059,356.976 105.751,356.976C106.661,356.976 107.356,357.273 107.835,357.866C108.314,358.459 108.554,359.234 108.554,360.192L108.554,365.68L107.024,365.68L107.024,360.617C107.024,359.845 106.893,359.267 106.63,358.883C106.368,358.499 105.942,358.307 105.354,358.307C104.735,358.307 104.235,358.511 103.853,358.92C103.471,359.328 103.28,359.905 103.28,360.649L103.28,365.68L101.751,365.68L101.751,357.168Z" style="fill-rule:nonzero;"/>
    <path d="M113.616,363.632L115.664,363.632L115.664,365.68L113.616,365.68L113.616,363.632ZM114.135,362.237C114.1,361.874 114.065,361.511 114.029,361.149C113.982,360.613 113.942,360.054 113.909,359.472C113.876,358.89 113.859,358.388 113.859,357.968L113.859,354.32L115.421,354.32L115.421,357.968C115.421,358.371 115.404,358.868 115.371,359.459C115.338,360.05 115.302,360.613 115.264,361.149C115.23,361.511 115.195,361.874 115.159,362.237L114.135,362.237Z" style="fill-rule:nonzero;"/>
    <path d="M125.325,367.12C124.051,365.748 123.195,364.259 122.755,362.651C122.316,361.044 122.316,359.436 122.755,357.829C123.195,356.221 124.051,354.732 125.325,353.36L126.659,353.36C125.505,354.776 124.732,356.277 124.339,357.862C123.947,359.447 123.947,361.033 124.339,362.618C124.732,364.203 125.505,365.703 126.659,367.12L125.325,367.12Z" style="fill-rule:nonzero;"/>
    <path d="M134.487,354.32L135.997,354.32L135.997,355.619L135.625,359.587L134.554,359.587L134.487,354.32ZM131.683,355.616L131.683,354.32L133.187,354.32L133.123,359.587L132.055,359.587L131.683,355.616Z" style="fill-rule:nonzero;"/>
    <path d="M143.232,357.168L144.768,357.168L144.768,365.68L143.232,365.68L143.232,357.168ZM139.856,364.352L147.664,364.352L147.664,365.68L139.856,365.68L139.856,364.352ZM140.016,357.168L144.672,357.168L144.672,358.496L140.016,358.496L140.016,357.168ZM143.12,354.288L144.72,354.288L144.72,355.92L143.12,355.92L143.12,354.288Z" style="fill-rule:nonzero;"/>
    <path d="M159.097,358.336L166.182,358.336L166.182,359.747L159.097,359.747L159.097,358.336ZM159.097,361.936L166.182,361.936L166.182,363.347L159.097,363.347L159.097,361.936Z" style="fill-rule:nonzero;"/>
    <path d="M184.093,367.299C183.495,367.299 182.964,367.177 182.498,366.933C182.032,366.689 181.671,366.348 181.416,365.912C181.161,365.476 181.033,364.975 181.033,364.409L181.033,363.126C181.033,362.616 180.952,362.213 180.79,361.915C180.628,361.618 180.37,361.403 180.014,361.27C179.659,361.138 179.166,361.076 178.534,361.085L178.534,359.571C179.164,359.582 179.657,359.521 180.013,359.389C180.369,359.257 180.628,359.042 180.79,358.744C180.952,358.446 181.033,358.043 181.033,357.533L181.033,356.249C181.033,355.684 181.161,355.183 181.416,354.747C181.671,354.311 182.032,353.971 182.498,353.726C182.964,353.482 183.495,353.36 184.093,353.36L184.947,353.36L184.947,354.771C184.068,354.739 183.444,354.839 183.074,355.07C182.704,355.302 182.518,355.698 182.518,356.259L182.518,357.629C182.518,358.339 182.329,358.934 181.949,359.414C181.569,359.894 181.077,360.187 180.473,360.291L180.473,360.339C181.088,360.444 181.582,360.738 181.957,361.222C182.331,361.707 182.518,362.309 182.518,363.03L182.518,364.4C182.518,364.955 182.704,365.348 183.074,365.579C183.444,365.811 184.068,365.915 184.947,365.891L184.947,367.299L184.093,367.299Z" style="fill-rule:nonzero;"/>
    <path d="M188.333,367.299L188.333,365.891C189.212,365.915 189.836,365.811 190.206,365.579C190.576,365.348 190.761,364.955 190.761,364.4L190.761,363.03C190.761,362.309 190.949,361.707 191.323,361.222C191.698,360.738 192.192,360.444 192.806,360.339L192.806,360.291C192.203,360.187 191.711,359.894 191.331,359.414C190.951,358.934 190.761,358.339 190.761,357.629L190.761,356.259C190.761,355.698 190.576,355.302 190.206,355.07C189.836,354.839 189.212,354.739 188.333,354.771L188.333,353.36L189.187,353.36C189.785,353.36 190.316,353.482 190.782,353.726C191.248,353.971 191.609,354.311 191.864,354.747C192.119,355.183 192.246,355.684 192.246,356.249L192.246,357.533C192.246,358.043 192.328,358.446 192.49,358.744C192.652,359.042 192.911,359.257 193.267,359.389C193.623,359.521 194.116,359.582 194.745,359.571L194.745,361.085C194.114,361.076 193.621,361.138 193.266,361.27C192.91,361.403 192.652,361.618 192.49,361.915C192.328,362.213 192.246,362.616 192.246,363.126L192.246,364.409C192.246,364.975 192.119,365.476 191.864,365.912C191.609,366.348 191.248,366.689 190.782,366.933C190.316,367.177 189.785,367.299 189.187,367.299L188.333,367.299Z" style="fill-rule:nonzero;"/>
    <path d="M201.686,354.32L203.197,354.32L203.197,355.619L202.825,359.587L201.753,359.587L201.686,354.32ZM198.883,355.616L198.883,354.32L200.387,354.32L200.323,359.587L199.254,359.587L198.883,355.616Z" style="fill-rule:nonzero;"/>
    <path d="M210.512,365.68L209.616,365.68L209.616,363.632L211.664,363.632L211.664,365.449L210.633,368.182L209.744,368.182L210.512,365.68Z" style="fill-rule:nonzero;"/>
    <path d="M229.632,357.168L231.168,357.168L231.168,365.68L229.632,365.68L229.632,357.168ZM226.256,364.352L234.064,364.352L234.064,365.68L226.256,365.68L226.256,364.352ZM226.416,357.168L231.072,357.168L231.072,358.496L226.416,358.496L226.416,357.168ZM229.52,354.288L231.12,354.288L231.12,355.92L229.52,355.92L229.52,354.288Z" style="fill-rule:nonzero;"/>
    <path d="M237.021,367.12C238.175,365.703 238.948,364.203 239.341,362.618C239.733,361.033 239.733,359.447 239.341,357.862C238.948,356.277 238.175,354.776 237.021,353.36L238.355,353.36C239.629,354.732 240.485,356.221 240.925,357.829C241.364,359.436 241.364,361.044 240.925,362.651C240.485,364.259 239.629,365.748 238.355,367.12L237.021,367.12Z" style="fill-rule:nonzero;"/>
    <path d="M248.016,357.568L250.064,357.568L250.064,359.616L248.016,359.616L248.016,357.568ZM248.912,365.68L248.016,365.68L248.016,363.632L250.064,363.632L250.064,365.456L249.04,368.176L248.144,368.176L248.912,365.68Z" style="fill-rule:nonzero;"/>
    <rect x="32" y="344" width="232" height="32" style="fill:none;stroke:black;stroke-width:1.5px;"/>
    <path d="M288.272,261.184L289.808,261.184L289.808,269.696L288.272,269.696L288.272,261.184ZM284.896,268.368L292.704,268.368L292.704,269.696L284.896,269.696L284.896,268.368ZM285.056,261.184L289.712,261.184L289.712,262.512L285.056,262.512L285.056,261.184ZM288.16,258.304L289.76,258.304L289.76,259.936L288.16,259.936L288.16,258.304Z" style="fill-rule:nonzero;"/>
    <path d="M306.973,261.011L308.387,261.011L308.387,268.627L306.973,268.627L306.973,261.011ZM303.872,264.112L311.488,264.112L311.488,265.523L303.872,265.523L303.872,264.112Z" style="fill-rule:nonzero;"/>
    <path d="M313.737,262.352L320.822,262.352L320.822,263.763L313.737,263.763L313.737,262.352ZM313.737,265.952L320.822,265.952L320.822,267.363L313.737,267.363L313.737,265.952Z" style="fill-rule:nonzero;"/>
    <path d="M336.128,261.51L333.171,261.51L333.171,260.179L334.656,260.179C335.072,260.179 335.408,260.118 335.664,259.995C335.92,259.873 336.106,259.677 336.222,259.41C336.339,259.142 336.397,258.784 336.397,258.336L337.696,258.336L337.696,269.696L336.128,269.696L336.128,261.51ZM332.576,268.23L340.384,268.23L340.384,269.696L332.576,269.696L332.576,268.23Z" style="fill-rule:nonzero;"/>
    <path d="M345.056,261.584L347.104,261.584L347.104,263.632L345.056,263.632L345.056,261.584ZM345.952,269.696L345.056,269.696L345.056,267.648L347.104,267.648L347.104,269.472L346.08,272.192L345.184,272.192L345.952,269.696Z" style="fill-rule:nonzero;"/>
    <rect x="272" y="248" width="88" height="32" style="fill:none;stroke:black;stroke-width:1.5px;"/>
    <rect x="32" y="72" width="200" height="32" style="fill:none;stroke:black;stroke-width:1.5px;"/>
    <path d="M42.992,149.168L44.528,149.168L44.528,157.68L42.992,157.68L42.992,149.168ZM39.616,156.352L47.424,156.352L47.424,157.68L39.616,157.68L39.616,156.352ZM39.776,149.168L44.432,149.168L44.432,150.496L39.776,150.496L39.776,149.168ZM42.88,146.288L44.48,146.288L44.48,147.92L42.88,147.92L42.88,146.288Z" style="fill:white;fill-rule:nonzero;"/>
    <path d="M51.609,148.726C51.609,147.928 51.809,147.328 52.208,146.925C52.607,146.522 53.218,146.32 54.041,146.32L56.512,146.32L56.512,147.651L54.118,147.651C53.794,147.651 53.55,147.743 53.386,147.928C53.221,148.112 53.139,148.381 53.139,148.733L53.139,157.68L51.609,157.68L51.609,148.726ZM49.088,149.168L56.384,149.168L56.384,150.499L49.088,150.499L49.088,149.168Z" style="fill:white;fill-rule:nonzero;"/>
    <path d="M104.5,130.439L100,134.939L95.5,130.439" style="fill:none;stroke:black;stroke-width:1.5px;stroke-linejoin:miter;stroke-miterlimit:10;"/>
    <path d="M100,104L100,134.939" style="fill:none;stroke:black;stroke-width:1.5px;"/>
    <path d="M320.5,242.439L316,246.939L311.5,242.439" style="fill:none;stroke:black;stroke-width:1.5px;stroke-linejoin:miter;stroke-miterlimit:10;"/>
    <path d="M316,216L316,246.939" style="fill:none;stroke:black;stroke-width:1.5px;"/>
    <path d="M104.5,402.439L100,406.939L95.5,402.439" style="fill:none;stroke:black;stroke-width:1.5px;stroke-linejoin:miter;stroke-miterlimit:10;"/>
    <path d="M100,376L100,406.939" style="fill:none;stroke:black;stroke-width:1.5px;"/>
    <path d="M104.5,66.439L100,70.939L95.5,66.439" style="fill:none;stroke:black;stroke-width:1.5px;stroke-linejoin:miter;stroke-miterlimit:10;"/>
    <path d="M100,40L100,70.939" style="fill:none;stroke:black;stroke-width:1.5px;"/>
    <path d="M320.5,178.439L316,182.939L311.5,178.439" style="fill:none;stroke:black;stroke-width:1.5px;stroke-linejoin:miter;stroke-miterlimit:10;"/>
    <path d="M136,152.128C136,152.128 255.921,152.107 299.997,152.099C304.241,152.098 308.312,153.783 311.313,156.784C314.314,159.785 316,163.855 316,168.099C316,174.314 316,180.519 316,182.939" style="fill:none;stroke:black;stroke-width:1.5px;"/>
    <path d="M104.5,338.439L100,342.939L95.5,338.439" style="fill:none;stroke:black;stroke-width:1.5px;stroke-linejoin:miter;stroke-miterlimit:10;"/>
    <path d="M100,168C100,168 100,328.343 100,342.939" style="fill:none;stroke:black;stroke-width:1.5px;"/>
    <path d="M183.376,134.105L180,134.105L180,132.64L188.32,132.64L188.32,134.105L184.944,134.105L184.944,144L183.376,144L183.376,134.105Z" style="fill-rule:nonzero;"/>
    <path d="M192.525,135.488L193.702,135.488L193.843,137.632L193.709,137.613C193.811,136.902 194.041,136.371 194.398,136.018C194.756,135.665 195.241,135.488 195.853,135.488L197.664,135.488L197.664,136.857L195.929,136.857C195.518,136.857 195.172,136.936 194.891,137.093C194.611,137.25 194.401,137.481 194.262,137.787C194.124,138.093 194.054,138.468 194.054,138.912L194.054,144L192.525,144L192.525,135.488ZM190.368,142.669L196.704,142.669L196.704,144L190.368,144L190.368,142.669ZM190.368,135.488L193.344,135.488L193.344,136.819L190.368,136.819L190.368,135.488Z" style="fill-rule:nonzero;"/>
    <path d="M202.643,144.192C201.828,144.192 201.179,143.911 200.694,143.349C200.21,142.787 199.968,142.003 199.968,140.998L199.968,135.488L201.497,135.488L201.497,140.576C201.497,141.361 201.633,141.938 201.904,142.307C202.175,142.676 202.588,142.861 203.142,142.861C203.757,142.861 204.241,142.656 204.595,142.248C204.949,141.839 205.126,141.265 205.126,140.525L205.126,135.488L206.656,135.488L206.656,144L205.209,144L205.19,141.779L205.433,141.875C205.28,142.613 204.962,143.184 204.478,143.587C203.995,143.99 203.383,144.192 202.643,144.192Z" style="fill-rule:nonzero;"/>
    <path d="M213.075,144.192C212.284,144.192 211.591,144.01 210.998,143.646C210.405,143.283 209.948,142.766 209.627,142.096C209.306,141.426 209.145,140.642 209.145,139.744C209.145,138.852 209.306,138.07 209.627,137.397C209.948,136.724 210.401,136.205 210.986,135.842C211.57,135.478 212.25,135.296 213.024,135.296C213.762,135.296 214.421,135.469 215.002,135.816C215.582,136.163 216.035,136.674 216.362,137.35C216.688,138.027 216.851,138.833 216.851,139.769L216.851,140.179L210.755,140.179C210.804,141.026 211.031,141.669 211.437,142.107C211.842,142.546 212.388,142.765 213.075,142.765C213.585,142.765 214.009,142.645 214.346,142.406C214.683,142.167 214.925,141.832 215.072,141.401L216.697,141.536C216.459,142.338 216.019,142.981 215.378,143.466C214.737,143.95 213.969,144.192 213.075,144.192ZM215.177,138.95C215.107,138.219 214.882,137.664 214.501,137.288C214.12,136.911 213.628,136.723 213.024,136.723C212.412,136.723 211.909,136.913 211.515,137.293C211.122,137.673 210.872,138.225 210.768,138.95L215.177,138.95Z" style="fill-rule:nonzero;"/>
    <path d="M112.112,194.224L119.216,194.224L119.216,195.689L112.835,195.689L113.68,194.867L113.68,200.08L112.835,199.293L118.928,199.293L118.928,200.758L112.835,200.758L113.68,199.984L113.68,205.584L112.112,205.584L112.112,194.224Z" style="fill-rule:nonzero;"/>
    <path d="M123.827,205.776C123.296,205.776 122.814,205.679 122.381,205.485C121.948,205.291 121.605,205.014 121.354,204.654C121.102,204.295 120.976,203.884 120.976,203.421C120.976,202.717 121.193,202.16 121.626,201.752C122.059,201.343 122.725,201.051 123.625,200.873L126.409,200.304C126.409,199.634 126.261,199.133 125.963,198.8C125.666,198.467 125.228,198.301 124.649,198.301C124.11,198.301 123.684,198.42 123.371,198.658C123.059,198.896 122.845,199.248 122.729,199.715L121.129,199.6C121.289,198.768 121.679,198.107 122.297,197.616C122.916,197.125 123.7,196.88 124.649,196.88C125.697,196.88 126.507,197.188 127.08,197.803C127.653,198.419 127.939,199.274 127.939,200.368L127.939,203.721C127.939,203.92 127.98,204.058 128.061,204.136C128.142,204.214 128.276,204.253 128.464,204.253L128.976,204.253L128.976,205.584C128.788,205.614 128.545,205.629 128.246,205.629C127.658,205.629 127.217,205.482 126.925,205.187C126.633,204.893 126.479,204.434 126.464,203.811L126.713,203.811C126.617,204.379 126.295,204.848 125.745,205.219C125.196,205.59 124.557,205.776 123.827,205.776ZM123.997,204.451C124.513,204.451 124.953,204.36 125.315,204.178C125.678,203.995 125.951,203.74 126.134,203.411C126.318,203.083 126.409,202.693 126.409,202.243L126.409,201.558L123.971,202.045C123.466,202.141 123.107,202.288 122.894,202.488C122.682,202.687 122.576,202.956 122.576,203.293C122.576,203.658 122.701,203.942 122.95,204.146C123.2,204.349 123.549,204.451 123.997,204.451Z" style="fill-rule:nonzero;"/>
    <path d="M134.32,196.611C134.32,196.276 134.228,196.016 134.043,195.832C133.859,195.647 133.599,195.555 133.264,195.555L131.28,195.555L131.28,194.224L133.347,194.224C134.173,194.224 134.796,194.435 135.217,194.856C135.639,195.277 135.849,195.901 135.849,196.726L135.849,205.584L134.32,205.584L134.32,196.611ZM130.96,204.253L138.768,204.253L138.768,205.584L130.96,205.584L130.96,204.253Z" style="fill-rule:nonzero;"/>
    <path d="M144.297,205.776C143.576,205.776 142.945,205.65 142.403,205.398C141.861,205.147 141.435,204.804 141.125,204.371C140.814,203.938 140.637,203.449 140.592,202.905L142.173,202.813C142.258,203.301 142.479,203.68 142.837,203.95C143.194,204.22 143.681,204.355 144.297,204.355C144.895,204.355 145.35,204.271 145.664,204.102C145.978,203.934 146.134,203.679 146.134,203.337C146.134,203.103 146.079,202.913 145.968,202.769C145.857,202.625 145.652,202.5 145.353,202.392C145.055,202.284 144.607,202.177 144.009,202.07C143.205,201.923 142.57,201.736 142.104,201.509C141.638,201.282 141.304,201.007 141.104,200.685C140.903,200.363 140.803,199.963 140.803,199.485C140.803,198.99 140.931,198.545 141.187,198.149C141.443,197.753 141.818,197.443 142.31,197.218C142.803,196.993 143.389,196.88 144.067,196.88C144.761,196.88 145.356,197.004 145.853,197.253C146.35,197.501 146.74,197.835 147.024,198.253C147.308,198.671 147.489,199.137 147.568,199.651L145.987,199.747C145.9,199.301 145.689,198.949 145.355,198.69C145.021,198.43 144.59,198.301 144.061,198.301C143.513,198.301 143.093,198.409 142.802,198.626C142.51,198.842 142.365,199.126 142.365,199.478C142.365,199.745 142.432,199.957 142.568,200.114C142.703,200.27 142.917,200.399 143.21,200.501C143.502,200.602 143.92,200.703 144.464,200.803C145.304,200.946 145.958,201.124 146.424,201.337C146.89,201.551 147.219,201.815 147.41,202.131C147.601,202.447 147.696,202.849 147.696,203.337C147.696,204.086 147.381,204.68 146.75,205.118C146.12,205.557 145.302,205.776 144.297,205.776Z" style="fill-rule:nonzero;"/>
    <path d="M153.859,205.776C153.068,205.776 152.375,205.594 151.782,205.23C151.189,204.867 150.732,204.35 150.411,203.68C150.09,203.01 149.929,202.226 149.929,201.328C149.929,200.436 150.09,199.654 150.411,198.981C150.732,198.308 151.185,197.789 151.77,197.426C152.354,197.062 153.034,196.88 153.808,196.88C154.546,196.88 155.205,197.053 155.786,197.4C156.366,197.747 156.819,198.258 157.146,198.934C157.472,199.611 157.635,200.417 157.635,201.353L157.635,201.763L151.539,201.763C151.588,202.61 151.815,203.253 152.221,203.691C152.626,204.13 153.172,204.349 153.859,204.349C154.369,204.349 154.793,204.229 155.13,203.99C155.467,203.751 155.709,203.416 155.856,202.985L157.481,203.12C157.243,203.922 156.803,204.565 156.162,205.05C155.521,205.534 154.753,205.776 153.859,205.776ZM155.961,200.534C155.891,199.803 155.666,199.248 155.285,198.872C154.904,198.495 154.412,198.307 153.808,198.307C153.196,198.307 152.693,198.497 152.299,198.877C151.906,199.257 151.656,199.809 151.552,200.534L155.961,200.534Z" style="fill-rule:nonzero;"/>
    <path d="M316,280L316,296C316,300.243 314.314,304.313 311.314,307.314C308.313,310.314 304.243,312 300,312C260,312 156,312 116,312C111.757,312 107.687,313.686 104.686,316.686C101.686,319.687 100,323.757 100,328C100,336.007 100,344.016 100,344.016" style="fill:none;stroke:black;stroke-width:1.5px;"/>
    <circle cx="100" cy="32" r="8" style="fill:none;stroke:black;stroke-width:1.5px;"/>
    <circle cx="100" cy="416" r="8" style="fill:none;stroke:black;stroke-width:1.5px;"/>
</svg>
