<?xml version="1.0" encoding="UTF-8" standalone="no"?>
<!DOCTYPE svg PUBLIC "-//W3C//DTD SVG 1.1//EN" "http://www.w3.org/Graphics/SVG/1.1/DTD/svg11.dtd">
<svg width="100%" height="100%" viewBox="0 0 472 448" version="1.1" xmlns="http://www.w3.org/2000/svg" xmlns:xlink="http://www.w3.org/1999/xlink" xml:space="preserve" xmlns:serif="http://www.serif.com/" style="fill-rule:evenodd;clip-rule:evenodd;stroke-linecap:round;stroke-linejoin:round;stroke-miterlimit:1.5;">
    <rect id="while" x="0" y="0" width="472" height="448" style="fill:rgb(246,248,250);"/>
    <rect x="32" y="136" width="64" height="32" style="stroke:black;stroke-width:1.5px;"/>
    <path d="M111.232,149.168L112.768,149.168L112.768,157.68L111.232,157.68L111.232,149.168ZM107.856,156.352L115.664,156.352L115.664,157.68L107.856,157.68L107.856,156.352ZM108.016,149.168L112.672,149.168L112.672,150.496L108.016,150.496L108.016,149.168ZM111.12,146.288L112.72,146.288L112.72,147.92L111.12,147.92L111.12,146.288Z" style="fill-rule:nonzero;"/>
    <path d="M126.979,153.689L126.979,151.757L134.285,148.541L134.285,150.089L127.975,152.873L127.975,152.569L134.285,155.353L134.285,156.905L126.979,153.689Z" style="fill-rule:nonzero;"/>
    <path d="M149.815,157.936C149.07,157.936 148.415,157.799 147.85,157.526C147.284,157.253 146.837,156.874 146.509,156.389C146.18,155.903 145.989,155.346 145.936,154.717L147.581,154.621C147.653,155.214 147.884,155.665 148.274,155.974C148.663,156.284 149.177,156.438 149.815,156.438C150.525,156.438 151.083,156.221 151.49,155.786C151.896,155.35 152.099,154.757 152.099,154.006C152.099,153.255 151.897,152.658 151.493,152.214C151.089,151.771 150.538,151.549 149.84,151.549C149.401,151.549 148.989,151.657 148.605,151.874C148.221,152.09 147.943,152.385 147.773,152.758L146.115,152.745L146.877,146.32L153.111,146.32L153.111,147.811L148.279,147.811L147.786,151.827L147.504,151.581C147.747,151.118 148.108,150.759 148.586,150.504C149.064,150.249 149.567,150.121 150.096,150.121C150.817,150.121 151.455,150.289 152.01,150.624C152.564,150.959 152.992,151.421 153.293,152.01C153.594,152.598 153.744,153.265 153.744,154.009C153.744,154.775 153.578,155.456 153.246,156.05C152.915,156.644 152.451,157.107 151.856,157.438C151.261,157.77 150.58,157.936 149.815,157.936Z" style="fill-rule:nonzero;"/>
    <rect x="96" y="136" width="72" height="32" style="fill:none;stroke:black;stroke-width:1.5px;"/>
    <path d="M40.616,149.168L42.261,149.168L43.266,155.785L44.383,150.371L45.874,150.371L46.991,155.785L47.995,149.168L49.64,149.168L47.976,157.68L46.203,157.68L45.128,152.688L44.053,157.68L42.293,157.68L40.616,149.168Z" style="fill:white;fill-rule:nonzero;"/>
    <path d="M51.49,146.32L53.019,146.32L53.019,151.027L52.853,150.953C53.013,150.288 53.329,149.792 53.8,149.466C54.272,149.139 54.841,148.976 55.509,148.976C56.392,148.976 57.077,149.268 57.563,149.851C58.05,150.435 58.293,151.217 58.293,152.198L58.293,157.68L56.763,157.68L56.763,152.605C56.763,151.826 56.627,151.248 56.355,150.872C56.083,150.495 55.667,150.307 55.106,150.307C54.466,150.307 53.958,150.514 53.582,150.928C53.207,151.342 53.019,151.92 53.019,152.662L53.019,157.68L51.49,157.68L51.49,146.32Z" style="fill:white;fill-rule:nonzero;"/>
    <path d="M64.12,149.168L65.656,149.168L65.656,157.68L64.12,157.68L64.12,149.168ZM60.744,156.352L68.552,156.352L68.552,157.68L60.744,157.68L60.744,156.352ZM60.904,149.168L65.56,149.168L65.56,150.496L60.904,150.496L60.904,149.168ZM64.008,146.288L65.608,146.288L65.608,147.92L64.008,147.92L64.008,146.288Z" style="fill:white;fill-rule:nonzero;"/>
    <path d="M73.704,148.707C73.704,148.372 73.612,148.112 73.427,147.928C73.243,147.743 72.983,147.651 72.648,147.651L70.664,147.651L70.664,146.32L72.731,146.32C73.557,146.32 74.18,146.531 74.602,146.952C75.023,147.373 75.234,147.997 75.234,148.822L75.234,157.68L73.704,157.68L73.704,148.707ZM70.344,156.349L78.152,156.349L78.152,157.68L70.344,157.68L70.344,156.349Z" style="fill:white;fill-rule:nonzero;"/>
    <path d="M83.643,157.872C82.852,157.872 82.159,157.69 81.566,157.326C80.973,156.963 80.516,156.446 80.195,155.776C79.874,155.106 79.714,154.322 79.714,153.424C79.714,152.532 79.874,151.75 80.195,151.077C80.516,150.404 80.969,149.885 81.554,149.522C82.138,149.158 82.818,148.976 83.592,148.976C84.33,148.976 84.989,149.149 85.57,149.496C86.15,149.843 86.603,150.354 86.93,151.03C87.256,151.707 87.419,152.513 87.419,153.449L87.419,153.859L81.323,153.859C81.372,154.706 81.599,155.349 82.005,155.787C82.41,156.226 82.956,156.445 83.643,156.445C84.153,156.445 84.577,156.325 84.914,156.086C85.251,155.847 85.493,155.512 85.64,155.081L87.266,155.216C87.027,156.018 86.587,156.661 85.946,157.146C85.305,157.63 84.537,157.872 83.643,157.872ZM85.746,152.63C85.675,151.899 85.45,151.344 85.069,150.968C84.688,150.591 84.196,150.403 83.592,150.403C82.98,150.403 82.477,150.593 82.083,150.973C81.69,151.353 81.441,151.905 81.336,152.63L85.746,152.63Z" style="fill:white;fill-rule:nonzero;"/>
    <path d="M100.5,130.439L96,134.939L91.5,130.439" style="fill:none;stroke:black;stroke-width:1.5px;stroke-linejoin:miter;stroke-miterlimit:10;"/>
    <path d="M96,104L96,134.939" style="fill:none;stroke:black;stroke-width:1.5px;"/>
    <path d="M316.5,242.439L312,246.939L307.5,242.439" style="fill:none;stroke:black;stroke-width:1.5px;stroke-linejoin:miter;stroke-miterlimit:10;"/>
    <path d="M312,216L312,246.939" style="fill:none;stroke:black;stroke-width:1.5px;"/>
    <path d="M100.5,66.439L96,70.939L91.5,66.439" style="fill:none;stroke:black;stroke-width:1.5px;stroke-linejoin:miter;stroke-miterlimit:10;"/>
    <path d="M96,40L96,70.939" style="fill:none;stroke:black;stroke-width:1.5px;"/>
    <path d="M316.5,178.439L312,182.939L307.5,178.439" style="fill:none;stroke:black;stroke-width:1.5px;stroke-linejoin:miter;stroke-miterlimit:10;"/>
    <path d="M168,152.128C168,152.128 258.478,152.108 295.996,152.1C300.241,152.099 304.311,153.784 307.312,156.785C310.314,159.785 312,163.855 312,168.1C312,174.314 312,180.519 312,182.939" style="fill:none;stroke:black;stroke-width:1.5px;"/>
    <path d="M100.5,338.439L96,342.939L91.5,338.439" style="fill:none;stroke:black;stroke-width:1.5px;stroke-linejoin:miter;stroke-miterlimit:10;"/>
    <path d="M96,168C96,168 96,328.343 96,342.939" style="fill:none;stroke:black;stroke-width:1.5px;"/>
    <path d="M202.528,134.105L199.152,134.105L199.152,132.64L207.472,132.64L207.472,134.105L204.096,134.105L204.096,144L202.528,144L202.528,134.105Z" style="fill-rule:nonzero;"/>
    <path d="M211.677,135.488L212.855,135.488L212.995,137.632L212.861,137.613C212.963,136.902 213.193,136.371 213.551,136.018C213.908,135.665 214.393,135.488 215.005,135.488L216.816,135.488L216.816,136.857L215.082,136.857C214.67,136.857 214.324,136.936 214.043,137.093C213.763,137.25 213.553,137.481 213.415,137.787C213.276,138.093 213.207,138.468 213.207,138.912L213.207,144L211.677,144L211.677,135.488ZM209.52,142.669L215.856,142.669L215.856,144L209.52,144L209.52,142.669ZM209.52,135.488L212.496,135.488L212.496,136.819L209.52,136.819L209.52,135.488Z" style="fill-rule:nonzero;"/>
    <path d="M221.795,144.192C220.98,144.192 220.331,143.911 219.846,143.349C219.362,142.787 219.12,142.003 219.12,140.998L219.12,135.488L220.65,135.488L220.65,140.576C220.65,141.361 220.785,141.938 221.056,142.307C221.327,142.676 221.74,142.861 222.295,142.861C222.909,142.861 223.393,142.656 223.747,142.248C224.101,141.839 224.279,141.265 224.279,140.525L224.279,135.488L225.808,135.488L225.808,144L224.362,144L224.343,141.779L224.586,141.875C224.432,142.613 224.114,143.184 223.63,143.587C223.147,143.99 222.535,144.192 221.795,144.192Z" style="fill-rule:nonzero;"/>
    <path d="M232.227,144.192C231.436,144.192 230.743,144.01 230.15,143.646C229.557,143.283 229.1,142.766 228.779,142.096C228.458,141.426 228.298,140.642 228.298,139.744C228.298,138.852 228.458,138.07 228.779,137.397C229.1,136.724 229.553,136.205 230.138,135.842C230.722,135.478 231.402,135.296 232.176,135.296C232.914,135.296 233.573,135.469 234.154,135.816C234.734,136.163 235.187,136.674 235.514,137.35C235.84,138.027 236.003,138.833 236.003,139.769L236.003,140.179L229.907,140.179C229.956,141.026 230.183,141.669 230.589,142.107C230.994,142.546 231.54,142.765 232.227,142.765C232.737,142.765 233.161,142.645 233.498,142.406C233.835,142.167 234.077,141.832 234.224,141.401L235.85,141.536C235.611,142.338 235.171,142.981 234.53,143.466C233.889,143.95 233.121,144.192 232.227,144.192ZM234.33,138.95C234.259,138.219 234.034,137.664 233.653,137.288C233.272,136.911 232.78,136.723 232.176,136.723C231.564,136.723 231.061,136.913 230.667,137.293C230.274,137.673 230.025,138.225 229.92,138.95L234.33,138.95Z" style="fill-rule:nonzero;"/>
    <path d="M38.48,194.224L45.584,194.224L45.584,195.689L39.203,195.689L40.048,194.867L40.048,200.08L39.203,199.293L45.296,199.293L45.296,200.758L39.203,200.758L40.048,199.984L40.048,205.584L38.48,205.584L38.48,194.224Z" style="fill-rule:nonzero;"/>
    <path d="M50.195,205.776C49.664,205.776 49.182,205.679 48.749,205.485C48.316,205.291 47.973,205.014 47.722,204.654C47.47,204.295 47.344,203.884 47.344,203.421C47.344,202.717 47.561,202.16 47.994,201.752C48.427,201.343 49.093,201.051 49.994,200.873L52.778,200.304C52.778,199.634 52.629,199.133 52.331,198.8C52.034,198.467 51.596,198.301 51.018,198.301C50.478,198.301 50.052,198.42 49.739,198.658C49.427,198.896 49.213,199.248 49.098,199.715L47.498,199.6C47.658,198.768 48.047,198.107 48.666,197.616C49.284,197.125 50.068,196.88 51.018,196.88C52.065,196.88 52.875,197.188 53.448,197.803C54.021,198.419 54.307,199.274 54.307,200.368L54.307,203.721C54.307,203.92 54.348,204.058 54.429,204.136C54.51,204.214 54.644,204.253 54.832,204.253L55.344,204.253L55.344,205.584C55.156,205.614 54.913,205.629 54.615,205.629C54.026,205.629 53.585,205.482 53.293,205.187C53.001,204.893 52.847,204.434 52.832,203.811L53.082,203.811C52.986,204.379 52.663,204.848 52.114,205.219C51.564,205.59 50.925,205.776 50.195,205.776ZM50.365,204.451C50.881,204.451 51.321,204.36 51.683,204.178C52.046,203.995 52.319,203.74 52.502,203.411C52.686,203.083 52.778,202.693 52.778,202.243L52.778,201.558L50.339,202.045C49.834,202.141 49.475,202.288 49.262,202.488C49.05,202.687 48.944,202.956 48.944,203.293C48.944,203.658 49.069,203.942 49.318,204.146C49.568,204.349 49.917,204.451 50.365,204.451Z" style="fill-rule:nonzero;"/>
    <path d="M60.688,196.611C60.688,196.276 60.596,196.016 60.411,195.832C60.227,195.647 59.967,195.555 59.632,195.555L57.648,195.555L57.648,194.224L59.715,194.224C60.541,194.224 61.164,194.435 61.586,194.856C62.007,195.277 62.218,195.901 62.218,196.726L62.218,205.584L60.688,205.584L60.688,196.611ZM57.328,204.253L65.136,204.253L65.136,205.584L57.328,205.584L57.328,204.253Z" style="fill-rule:nonzero;"/>
    <path d="M70.666,205.776C69.945,205.776 69.313,205.65 68.771,205.398C68.229,205.147 67.803,204.804 67.493,204.371C67.182,203.938 67.005,203.449 66.96,202.905L68.541,202.813C68.626,203.301 68.847,203.68 69.205,203.95C69.562,204.22 70.049,204.355 70.666,204.355C71.263,204.355 71.718,204.271 72.032,204.102C72.346,203.934 72.503,203.679 72.503,203.337C72.503,203.103 72.447,202.913 72.336,202.769C72.225,202.625 72.02,202.5 71.722,202.392C71.423,202.284 70.975,202.177 70.378,202.07C69.573,201.923 68.938,201.736 68.472,201.509C68.006,201.282 67.673,201.007 67.472,200.685C67.272,200.363 67.171,199.963 67.171,199.485C67.171,198.99 67.299,198.545 67.555,198.149C67.811,197.753 68.186,197.443 68.678,197.218C69.171,196.993 69.757,196.88 70.435,196.88C71.129,196.88 71.724,197.004 72.221,197.253C72.718,197.501 73.108,197.835 73.392,198.253C73.676,198.671 73.857,199.137 73.936,199.651L72.355,199.747C72.268,199.301 72.057,198.949 71.723,198.69C71.389,198.43 70.958,198.301 70.429,198.301C69.881,198.301 69.461,198.409 69.17,198.626C68.878,198.842 68.733,199.126 68.733,199.478C68.733,199.745 68.801,199.957 68.936,200.114C69.072,200.27 69.285,200.399 69.578,200.501C69.87,200.602 70.288,200.703 70.832,200.803C71.673,200.946 72.326,201.124 72.792,201.337C73.258,201.551 73.587,201.815 73.778,202.131C73.969,202.447 74.064,202.849 74.064,203.337C74.064,204.086 73.749,204.68 73.118,205.118C72.488,205.557 71.67,205.776 70.666,205.776Z" style="fill-rule:nonzero;"/>
    <path d="M80.227,205.776C79.436,205.776 78.743,205.594 78.15,205.23C77.557,204.867 77.1,204.35 76.779,203.68C76.458,203.01 76.298,202.226 76.298,201.328C76.298,200.436 76.458,199.654 76.779,198.981C77.1,198.308 77.553,197.789 78.138,197.426C78.722,197.062 79.402,196.88 80.176,196.88C80.914,196.88 81.573,197.053 82.154,197.4C82.734,197.747 83.187,198.258 83.514,198.934C83.84,199.611 84.003,200.417 84.003,201.353L84.003,201.763L77.907,201.763C77.956,202.61 78.183,203.253 78.589,203.691C78.994,204.13 79.54,204.349 80.227,204.349C80.737,204.349 81.161,204.229 81.498,203.99C81.835,203.751 82.077,203.416 82.224,202.985L83.85,203.12C83.611,203.922 83.171,204.565 82.53,205.05C81.889,205.534 81.121,205.776 80.227,205.776ZM82.33,200.534C82.259,199.803 82.034,199.248 81.653,198.872C81.272,198.495 80.78,198.307 80.176,198.307C79.564,198.307 79.061,198.497 78.667,198.877C78.274,199.257 78.025,199.809 77.92,200.534L82.33,200.534Z" style="fill-rule:nonzero;"/>
    <path d="M123.5,173.561L128,169.061L132.5,173.561" style="fill:none;stroke:black;stroke-width:1.5px;stroke-linejoin:miter;stroke-miterlimit:10;"/>
    <path d="M312,280L312,296C312,304.837 304.837,312 296,312C261.172,312 178.828,312 144,312C135.163,312 128,304.837 128,296C128,260.869 128,179.293 128,169.061" style="fill:none;stroke:black;stroke-width:1.5px;"/>
    <circle cx="96" cy="32" r="8" style="fill:none;stroke:black;stroke-width:1.5px;"/>
    <circle cx="96" cy="416" r="8" style="fill:none;stroke:black;stroke-width:1.5px;"/>
    <path d="M47.216,84.707C47.216,84.372 47.124,84.112 46.939,83.928C46.755,83.743 46.495,83.651 46.16,83.651L44.176,83.651L44.176,82.32L46.243,82.32C47.069,82.32 47.692,82.531 48.113,82.952C48.535,83.373 48.745,83.997 48.745,84.822L48.745,93.68L47.216,93.68L47.216,84.707ZM43.856,92.349L51.664,92.349L51.664,93.68L43.856,93.68L43.856,92.349Z" style="fill-rule:nonzero;"/>
    <path d="M57.155,93.872C56.364,93.872 55.671,93.69 55.078,93.326C54.485,92.963 54.028,92.446 53.707,91.776C53.386,91.106 53.225,90.322 53.225,89.424C53.225,88.532 53.386,87.75 53.707,87.077C54.028,86.404 54.481,85.885 55.066,85.522C55.65,85.158 56.33,84.976 57.104,84.976C57.842,84.976 58.501,85.149 59.082,85.496C59.662,85.843 60.115,86.354 60.442,87.03C60.768,87.707 60.931,88.513 60.931,89.449L60.931,89.859L54.835,89.859C54.884,90.706 55.111,91.349 55.517,91.787C55.922,92.226 56.468,92.445 57.155,92.445C57.665,92.445 58.089,92.325 58.426,92.086C58.763,91.847 59.005,91.512 59.152,91.081L60.777,91.216C60.539,92.018 60.099,92.661 59.458,93.146C58.817,93.63 58.049,93.872 57.155,93.872ZM59.257,88.63C59.187,87.899 58.962,87.344 58.581,86.968C58.2,86.591 57.708,86.403 57.104,86.403C56.492,86.403 55.989,86.593 55.595,86.973C55.202,87.353 54.952,87.905 54.848,88.63L59.257,88.63Z" style="fill-rule:nonzero;"/>
    <path d="M67.862,93.68C67.007,93.68 66.37,93.479 65.95,93.077C65.531,92.675 65.321,92.059 65.321,91.229L65.321,82.969L66.851,82.969L66.851,91.19C66.851,91.585 66.943,91.877 67.128,92.066C67.312,92.254 67.594,92.349 67.971,92.349L70.224,92.349L70.224,93.68L67.862,93.68ZM62.608,85.168L70.224,85.168L70.224,86.499L62.608,86.499L62.608,85.168Z" style="fill-rule:nonzero;"/>
    <path d="M81.616,85.168L82.982,85.168L83.04,87.065L82.857,87.027C82.962,86.391 83.179,85.891 83.509,85.525C83.838,85.159 84.242,84.976 84.72,84.976C85.208,84.976 85.59,85.155 85.866,85.514C86.141,85.872 86.316,86.405 86.39,87.113L86.205,87.113C86.309,86.448 86.528,85.925 86.861,85.546C87.194,85.166 87.615,84.976 88.125,84.976C88.803,84.976 89.296,85.218 89.603,85.701C89.91,86.184 90.064,86.964 90.064,88.041L90.064,93.68L88.541,93.68L88.541,88.233C88.541,87.534 88.47,87.038 88.328,86.746C88.186,86.453 87.959,86.307 87.648,86.307C87.43,86.307 87.244,86.377 87.089,86.517C86.935,86.657 86.815,86.871 86.729,87.16C86.644,87.449 86.601,87.815 86.601,88.259L86.601,93.68L85.078,93.68L85.078,88.233C85.078,87.547 85.009,87.054 84.87,86.755C84.732,86.457 84.502,86.307 84.182,86.307C83.965,86.307 83.779,86.377 83.624,86.517C83.469,86.657 83.35,86.871 83.266,87.16C83.181,87.449 83.139,87.815 83.139,88.259L83.139,93.68L81.616,93.68L81.616,85.168Z" style="fill-rule:nonzero;"/>
    <path d="M94.723,93.872C93.908,93.872 93.259,93.591 92.774,93.029C92.29,92.467 92.048,91.683 92.048,90.678L92.048,85.168L93.577,85.168L93.577,90.256C93.577,91.041 93.713,91.618 93.984,91.987C94.255,92.356 94.668,92.541 95.222,92.541C95.837,92.541 96.321,92.336 96.675,91.928C97.029,91.519 97.206,90.945 97.206,90.205L97.206,85.168L98.736,85.168L98.736,93.68L97.289,93.68L97.27,91.459L97.513,91.555C97.36,92.293 97.042,92.864 96.558,93.267C96.075,93.67 95.463,93.872 94.723,93.872Z" style="fill-rule:nonzero;"/>
    <path d="M106.262,93.68C105.407,93.68 104.77,93.479 104.35,93.077C103.931,92.675 103.721,92.059 103.721,91.229L103.721,82.969L105.251,82.969L105.251,91.19C105.251,91.585 105.343,91.877 105.528,92.066C105.712,92.254 105.994,92.349 106.371,92.349L108.624,92.349L108.624,93.68L106.262,93.68ZM101.008,85.168L108.624,85.168L108.624,86.499L101.008,86.499L101.008,85.168Z" style="fill-rule:nonzero;"/>
    <path d="M124.032,85.168L125.568,85.168L125.568,93.68L124.032,93.68L124.032,85.168ZM120.656,92.352L128.464,92.352L128.464,93.68L120.656,93.68L120.656,92.352ZM120.816,85.168L125.472,85.168L125.472,86.496L120.816,86.496L120.816,85.168ZM123.92,82.288L125.52,82.288L125.52,83.92L123.92,83.92L123.92,82.288Z" style="fill-rule:nonzero;"/>
    <path d="M132.816,91.632L134.864,91.632L134.864,93.68L132.816,93.68L132.816,91.632ZM132.816,85.568L134.864,85.568L134.864,87.616L132.816,87.616L132.816,85.568Z" style="fill-rule:nonzero;"/>
    <path d="M152.832,85.168L154.368,85.168L154.368,93.68L152.832,93.68L152.832,85.168ZM149.456,92.352L157.264,92.352L157.264,93.68L149.456,93.68L149.456,92.352ZM149.616,85.168L154.272,85.168L154.272,86.496L149.616,86.496L149.616,85.168ZM152.72,82.288L154.32,82.288L154.32,83.92L152.72,83.92L152.72,82.288Z" style="fill-rule:nonzero;"/>
    <path d="M162.563,93.936C161.343,93.936 160.392,93.642 159.712,93.053C159.031,92.464 158.663,91.675 158.608,90.685L160.227,90.582C160.287,91.214 160.523,91.681 160.936,91.984C161.349,92.287 161.891,92.438 162.563,92.438C163.282,92.438 163.872,92.278 164.334,91.958C164.796,91.638 165.027,91.141 165.027,90.467C165.027,90.004 164.928,89.62 164.73,89.314C164.531,89.008 164.252,88.779 163.893,88.627C163.533,88.476 163.118,88.4 162.646,88.4L161.731,88.4L161.731,86.934L162.646,86.934C163.235,86.934 163.714,86.799 164.083,86.528C164.452,86.257 164.637,85.838 164.637,85.27C164.637,84.707 164.463,84.281 164.117,83.993C163.77,83.705 163.271,83.561 162.621,83.561C161.964,83.561 161.46,83.693 161.11,83.955C160.76,84.218 160.549,84.598 160.477,85.097L158.838,84.995C158.947,84.097 159.331,83.384 159.99,82.856C160.65,82.328 161.526,82.064 162.621,82.064C163.361,82.064 164.009,82.189 164.563,82.44C165.118,82.691 165.543,83.05 165.838,83.517C166.134,83.984 166.281,84.532 166.281,85.161C166.281,85.87 166.063,86.438 165.627,86.867C165.191,87.296 164.546,87.587 163.693,87.741L163.693,87.446C164.614,87.562 165.341,87.892 165.874,88.438C166.406,88.984 166.672,89.676 166.672,90.512C166.672,91.222 166.498,91.833 166.15,92.345C165.803,92.857 165.319,93.251 164.699,93.525C164.079,93.799 163.367,93.936 162.563,93.936Z" style="fill-rule:nonzero;"/>
    <path d="M168.208,93.68C168.208,92.82 168.334,92.065 168.587,91.414C168.84,90.764 169.277,90.152 169.899,89.579C170.521,89.006 171.38,88.428 172.477,87.843C173.038,87.547 173.468,87.286 173.768,87.062C174.068,86.838 174.287,86.6 174.427,86.347C174.567,86.094 174.637,85.783 174.637,85.414C174.637,84.847 174.455,84.391 174.091,84.046C173.727,83.702 173.204,83.529 172.521,83.529C171.768,83.529 171.169,83.728 170.723,84.126C170.277,84.524 169.999,85.101 169.888,85.856L168.265,85.75C168.389,84.605 168.82,83.704 169.558,83.048C170.296,82.392 171.283,82.064 172.518,82.064C173.291,82.064 173.959,82.203 174.523,82.482C175.087,82.76 175.518,83.149 175.814,83.65C176.111,84.15 176.259,84.727 176.259,85.382C176.259,85.969 176.164,86.468 175.973,86.88C175.782,87.292 175.468,87.678 175.03,88.038C174.593,88.399 173.974,88.79 173.174,89.213C172.208,89.723 171.464,90.242 170.942,90.771C170.421,91.3 170.144,91.773 170.112,92.189L176.272,92.189L176.272,93.68L168.208,93.68Z" style="fill-rule:nonzero;"/>
    <path d="M187.897,86.336L194.982,86.336L194.982,87.747L187.897,87.747L187.897,86.336ZM187.897,89.936L194.982,89.936L194.982,91.347L187.897,91.347L187.897,89.936Z" style="fill-rule:nonzero;"/>
    <path d="M210.64,93.936C209.812,93.936 209.097,93.701 208.494,93.23C207.892,92.76 207.427,92.079 207.099,91.189C206.772,90.298 206.608,89.24 206.608,88.016C206.608,86.791 206.772,85.731 207.099,84.835C207.427,83.939 207.894,83.253 208.501,82.778C209.108,82.302 209.821,82.064 210.64,82.064C211.459,82.064 212.172,82.302 212.779,82.778C213.386,83.253 213.853,83.939 214.181,84.835C214.508,85.731 214.672,86.791 214.672,88.016C214.672,89.24 214.508,90.298 214.181,91.189C213.853,92.079 213.388,92.76 212.785,93.23C212.183,93.701 211.468,93.936 210.64,93.936ZM210.64,92.445C211.139,92.445 211.568,92.268 211.926,91.915C212.285,91.562 212.558,91.053 212.746,90.389C212.933,89.724 213.027,88.933 213.027,88.016C213.027,87.099 212.933,86.305 212.746,85.635C212.558,84.965 212.283,84.451 211.92,84.093C211.557,83.734 211.131,83.555 210.64,83.555C210.149,83.555 209.723,83.734 209.36,84.093C208.997,84.451 208.722,84.965 208.534,85.635C208.347,86.305 208.253,87.099 208.253,88.016C208.253,88.933 208.347,89.724 208.534,90.389C208.722,91.053 208.995,91.562 209.354,91.915C209.712,92.268 210.141,92.445 210.64,92.445ZM212.182,83.939L213.462,84.022L209.097,92.061L207.817,91.977L212.182,83.939Z" style="fill-rule:nonzero;"/>
    <path d="M219.216,85.568L221.264,85.568L221.264,87.616L219.216,87.616L219.216,85.568ZM220.112,93.68L219.216,93.68L219.216,91.632L221.264,91.632L221.264,93.456L220.24,96.176L219.344,96.176L220.112,93.68Z" style="fill-rule:nonzero;"/>
    <rect x="32" y="72" width="200" height="32" style="fill:none;stroke:black;stroke-width:1.5px;"/>
    <path d="M203.888,197.168L205.322,197.168L205.363,199.107L205.165,198.985C205.374,198.339 205.72,197.843 206.202,197.496C206.684,197.149 207.254,196.976 207.914,196.976C208.694,196.976 209.351,197.174 209.885,197.571C210.418,197.968 210.817,198.503 211.082,199.176C211.346,199.849 211.479,200.598 211.479,201.424C211.479,202.25 211.346,202.999 211.082,203.672C210.817,204.345 210.418,204.88 209.885,205.277C209.351,205.674 208.694,205.872 207.914,205.872C207.483,205.872 207.083,205.797 206.714,205.648C206.345,205.499 206.03,205.286 205.771,205.011C205.512,204.736 205.326,204.415 205.213,204.048L205.418,203.827L205.418,208.08L203.888,208.08L203.888,197.168ZM207.664,204.445C208.353,204.445 208.893,204.18 209.285,203.651C209.676,203.122 209.872,202.38 209.872,201.424C209.872,200.468 209.676,199.726 209.285,199.197C208.893,198.668 208.353,198.403 207.664,198.403C207.205,198.403 206.806,198.518 206.467,198.749C206.128,198.979 205.868,199.32 205.688,199.771C205.508,200.222 205.418,200.773 205.418,201.424C205.418,202.075 205.508,202.625 205.688,203.075C205.868,203.525 206.126,203.866 206.461,204.098C206.796,204.329 207.197,204.445 207.664,204.445Z" style="fill-rule:nonzero;"/>
    <path d="M215.805,197.168L216.983,197.168L217.123,199.312L216.989,199.293C217.091,198.582 217.321,198.051 217.679,197.698C218.036,197.345 218.521,197.168 219.133,197.168L220.944,197.168L220.944,198.537L219.21,198.537C218.798,198.537 218.452,198.616 218.171,198.773C217.891,198.93 217.681,199.161 217.543,199.467C217.404,199.773 217.335,200.148 217.335,200.592L217.335,205.68L215.805,205.68L215.805,197.168ZM213.648,204.349L219.984,204.349L219.984,205.68L213.648,205.68L213.648,204.349ZM213.648,197.168L216.624,197.168L216.624,198.499L213.648,198.499L213.648,197.168Z" style="fill-rule:nonzero;"/>
    <path d="M226.432,197.168L227.968,197.168L227.968,205.68L226.432,205.68L226.432,197.168ZM223.056,204.352L230.864,204.352L230.864,205.68L223.056,205.68L223.056,204.352ZM223.216,197.168L227.872,197.168L227.872,198.496L223.216,198.496L223.216,197.168ZM226.32,194.288L227.92,194.288L227.92,195.92L226.32,195.92L226.32,194.288Z" style="fill-rule:nonzero;"/>
    <path d="M232.951,197.168L234.343,197.168L234.397,199.389L234.218,199.261C234.365,198.508 234.684,197.939 235.176,197.554C235.668,197.169 236.259,196.976 236.951,196.976C237.861,196.976 238.556,197.273 239.035,197.866C239.514,198.459 239.754,199.234 239.754,200.192L239.754,205.68L238.224,205.68L238.224,200.617C238.224,199.845 238.093,199.267 237.83,198.883C237.568,198.499 237.142,198.307 236.554,198.307C235.935,198.307 235.435,198.511 235.053,198.92C234.671,199.328 234.48,199.905 234.48,200.649L234.48,205.68L232.951,205.68L232.951,197.168Z" style="fill-rule:nonzero;"/>
    <path d="M247.063,205.68C246.207,205.68 245.57,205.479 245.15,205.077C244.731,204.675 244.522,204.059 244.522,203.229L244.522,194.969L246.051,194.969L246.051,203.19C246.051,203.585 246.144,203.877 246.328,204.066C246.513,204.254 246.794,204.349 247.171,204.349L249.424,204.349L249.424,205.68L247.063,205.68ZM241.808,197.168L249.424,197.168L249.424,198.499L241.808,198.499L241.808,197.168Z" style="fill-rule:nonzero;"/>
    <path d="M255.216,196.707C255.216,196.372 255.124,196.112 254.939,195.928C254.755,195.743 254.495,195.651 254.16,195.651L252.176,195.651L252.176,194.32L254.243,194.32C255.069,194.32 255.692,194.531 256.114,194.952C256.535,195.373 256.746,195.997 256.746,196.822L256.746,205.68L255.216,205.68L255.216,196.707ZM251.856,204.349L259.664,204.349L259.664,205.68L251.856,205.68L251.856,204.349Z" style="fill-rule:nonzero;"/>
    <path d="M261.751,197.168L263.143,197.168L263.197,199.389L263.018,199.261C263.165,198.508 263.484,197.939 263.976,197.554C264.468,197.169 265.059,196.976 265.751,196.976C266.661,196.976 267.356,197.273 267.835,197.866C268.314,198.459 268.554,199.234 268.554,200.192L268.554,205.68L267.024,205.68L267.024,200.617C267.024,199.845 266.893,199.267 266.63,198.883C266.368,198.499 265.942,198.307 265.354,198.307C264.735,198.307 264.235,198.511 263.853,198.92C263.471,199.328 263.28,199.905 263.28,200.649L263.28,205.68L261.751,205.68L261.751,197.168Z" style="fill-rule:nonzero;"/>
    <path d="M273.616,203.632L275.664,203.632L275.664,205.68L273.616,205.68L273.616,203.632ZM274.135,202.237C274.1,201.874 274.065,201.511 274.029,201.149C273.982,200.613 273.942,200.054 273.909,199.472C273.876,198.89 273.859,198.388 273.859,197.968L273.859,194.32L275.421,194.32L275.421,197.968C275.421,198.371 275.404,198.868 275.371,199.459C275.338,200.05 275.302,200.613 275.264,201.149C275.23,201.511 275.195,201.874 275.159,202.237L274.135,202.237Z" style="fill-rule:nonzero;"/>
    <path d="M285.325,207.12C284.051,205.748 283.195,204.259 282.755,202.651C282.316,201.044 282.316,199.436 282.755,197.829C283.195,196.221 284.051,194.732 285.325,193.36L286.659,193.36C285.505,194.776 284.732,196.277 284.339,197.862C283.947,199.447 283.947,201.033 284.339,202.618C284.732,204.203 285.505,205.703 286.659,207.12L285.325,207.12Z" style="fill-rule:nonzero;"/>
    <path d="M294.487,194.32L295.997,194.32L295.997,195.619L295.626,199.587L294.554,199.587L294.487,194.32ZM291.683,195.616L291.683,194.32L293.187,194.32L293.123,199.587L292.055,199.587L291.683,195.616Z" style="fill-rule:nonzero;"/>
    <path d="M299.664,194.32L301.232,194.32L301.232,199.795L300.563,199.248L306.317,199.248L305.648,199.795L305.648,194.32L307.216,194.32L307.216,205.68L305.648,205.68L305.648,200.141L306.317,200.713L300.563,200.713L301.232,200.141L301.232,205.68L299.664,205.68L299.664,194.32Z" style="fill-rule:nonzero;"/>
    <path d="M313.155,205.872C312.364,205.872 311.671,205.69 311.078,205.326C310.485,204.963 310.028,204.446 309.707,203.776C309.386,203.106 309.226,202.322 309.226,201.424C309.226,200.532 309.386,199.75 309.707,199.077C310.028,198.404 310.481,197.885 311.066,197.522C311.65,197.158 312.33,196.976 313.104,196.976C313.842,196.976 314.501,197.149 315.082,197.496C315.662,197.843 316.115,198.354 316.442,199.03C316.768,199.707 316.931,200.513 316.931,201.449L316.931,201.859L310.835,201.859C310.884,202.706 311.111,203.349 311.517,203.787C311.922,204.226 312.468,204.445 313.155,204.445C313.665,204.445 314.089,204.325 314.426,204.086C314.763,203.847 315.005,203.512 315.152,203.081L316.777,203.216C316.539,204.018 316.099,204.661 315.458,205.146C314.817,205.63 314.049,205.872 313.155,205.872ZM315.258,200.63C315.187,199.899 314.962,199.344 314.581,198.968C314.2,198.591 313.708,198.403 313.104,198.403C312.492,198.403 311.989,198.593 311.595,198.973C311.202,199.353 310.953,199.905 310.848,200.63L315.258,200.63Z" style="fill-rule:nonzero;"/>
    <path d="M322.416,196.707C322.416,196.372 322.324,196.112 322.139,195.928C321.955,195.743 321.695,195.651 321.36,195.651L319.376,195.651L319.376,194.32L321.443,194.32C322.269,194.32 322.892,194.531 323.314,194.952C323.735,195.373 323.946,195.997 323.946,196.822L323.946,205.68L322.416,205.68L322.416,196.707ZM319.056,204.349L326.864,204.349L326.864,205.68L319.056,205.68L319.056,204.349Z" style="fill-rule:nonzero;"/>
    <path d="M332.016,196.707C332.016,196.372 331.924,196.112 331.739,195.928C331.555,195.743 331.295,195.651 330.96,195.651L328.976,195.651L328.976,194.32L331.043,194.32C331.869,194.32 332.492,194.531 332.914,194.952C333.335,195.373 333.546,195.997 333.546,196.822L333.546,205.68L332.016,205.68L332.016,196.707ZM328.656,204.349L336.464,204.349L336.464,205.68L328.656,205.68L328.656,204.349Z" style="fill-rule:nonzero;"/>
    <path d="M341.84,205.872C341.057,205.872 340.371,205.69 339.782,205.326C339.194,204.963 338.737,204.446 338.411,203.776C338.086,203.106 337.923,202.322 337.923,201.424C337.923,200.526 338.086,199.742 338.411,199.072C338.737,198.402 339.194,197.885 339.782,197.522C340.371,197.158 341.057,196.976 341.84,196.976C342.614,196.976 343.298,197.158 343.891,197.522C344.484,197.885 344.943,198.402 345.269,199.072C345.594,199.742 345.757,200.526 345.757,201.424C345.757,202.322 345.594,203.106 345.269,203.776C344.943,204.446 344.484,204.963 343.891,205.326C343.298,205.69 342.614,205.872 341.84,205.872ZM341.84,204.445C342.57,204.445 343.137,204.176 343.542,203.64C343.948,203.103 344.15,202.365 344.15,201.424C344.15,200.483 343.948,199.744 343.542,199.208C343.137,198.671 342.57,198.403 341.84,198.403C341.11,198.403 340.543,198.669 340.137,199.202C339.732,199.734 339.53,200.475 339.53,201.424C339.53,202.373 339.732,203.114 340.137,203.646C340.543,204.179 341.11,204.445 341.84,204.445Z" style="fill-rule:nonzero;"/>
    <path d="M356.816,194.32L358.442,194.32L359.274,204.144L359.127,204.144L360.33,195.6L361.751,195.6L362.954,204.144L362.807,204.144L363.639,194.32L365.264,194.32L364.138,205.68L362.026,205.68L360.791,197.04L361.289,197.04L360.055,205.68L357.943,205.68L356.816,194.32Z" style="fill-rule:nonzero;"/>
    <path d="M370.64,205.872C369.857,205.872 369.171,205.69 368.582,205.326C367.994,204.963 367.537,204.446 367.211,203.776C366.886,203.106 366.723,202.322 366.723,201.424C366.723,200.526 366.886,199.742 367.211,199.072C367.537,198.402 367.994,197.885 368.582,197.522C369.171,197.158 369.857,196.976 370.64,196.976C371.414,196.976 372.098,197.158 372.691,197.522C373.284,197.885 373.743,198.402 374.069,199.072C374.394,199.742 374.557,200.526 374.557,201.424C374.557,202.322 374.394,203.106 374.069,203.776C373.743,204.446 373.284,204.963 372.691,205.326C372.098,205.69 371.414,205.872 370.64,205.872ZM370.64,204.445C371.37,204.445 371.937,204.176 372.342,203.64C372.748,203.103 372.95,202.365 372.95,201.424C372.95,200.483 372.748,199.744 372.342,199.208C371.937,198.671 371.37,198.403 370.64,198.403C369.91,198.403 369.343,198.669 368.937,199.202C368.532,199.734 368.329,200.475 368.329,201.424C368.329,202.373 368.532,203.114 368.937,203.646C369.343,204.179 369.91,204.445 370.64,204.445Z" style="fill-rule:nonzero;"/>
    <path d="M379.005,197.168L380.182,197.168L380.323,199.312L380.189,199.293C380.291,198.582 380.521,198.051 380.878,197.698C381.236,197.345 381.721,197.168 382.333,197.168L384.144,197.168L384.144,198.537L382.409,198.537C381.998,198.537 381.652,198.616 381.371,198.773C381.091,198.93 380.881,199.161 380.742,199.467C380.604,199.773 380.534,200.148 380.534,200.592L380.534,205.68L379.005,205.68L379.005,197.168ZM376.848,204.349L383.184,204.349L383.184,205.68L376.848,205.68L376.848,204.349ZM376.848,197.168L379.824,197.168L379.824,198.499L376.848,198.499L376.848,197.168Z" style="fill-rule:nonzero;"/>
    <path d="M389.616,196.707C389.616,196.372 389.524,196.112 389.339,195.928C389.155,195.743 388.895,195.651 388.56,195.651L386.576,195.651L386.576,194.32L388.643,194.32C389.469,194.32 390.092,194.531 390.513,194.952C390.935,195.373 391.145,195.997 391.145,196.822L391.145,205.68L389.616,205.68L389.616,196.707ZM386.256,204.349L394.064,204.349L394.064,205.68L386.256,205.68L386.256,204.349Z" style="fill-rule:nonzero;"/>
    <path d="M398.979,205.872C398.262,205.872 397.636,205.69 397.099,205.326C396.563,204.963 396.151,204.446 395.864,203.776C395.577,203.106 395.433,202.322 395.433,201.424C395.433,200.526 395.577,199.742 395.864,199.072C396.151,198.402 396.563,197.885 397.099,197.522C397.636,197.158 398.262,196.976 398.979,196.976C399.527,196.976 400.027,197.107 400.477,197.368C400.927,197.629 401.266,197.96 401.494,198.361L401.494,194.32L403.024,194.32L403.024,205.68L401.609,205.68L401.565,204.406C401.322,204.878 400.975,205.24 400.525,205.493C400.075,205.746 399.559,205.872 398.979,205.872ZM399.197,204.445C399.673,204.445 400.082,204.323 400.426,204.078C400.769,203.834 401.033,203.485 401.218,203.03C401.402,202.576 401.494,202.04 401.494,201.424C401.494,200.799 401.402,200.259 401.218,199.803C401.033,199.348 400.767,199.001 400.419,198.762C400.071,198.523 399.655,198.403 399.171,198.403C398.508,198.403 397.987,198.67 397.608,199.203C397.229,199.737 397.04,200.477 397.04,201.424C397.04,202.363 397.231,203.101 397.614,203.638C397.997,204.176 398.525,204.445 399.197,204.445Z" style="fill-rule:nonzero;"/>
    <path d="M409.686,194.32L411.197,194.32L411.197,195.619L410.825,199.587L409.753,199.587L409.686,194.32ZM406.883,195.616L406.883,194.32L408.387,194.32L408.323,199.587L407.254,199.587L406.883,195.616Z" style="fill-rule:nonzero;"/>
    <path d="M416.221,207.12C417.375,205.703 418.148,204.203 418.541,202.618C418.933,201.033 418.933,199.447 418.541,197.862C418.148,196.277 417.375,194.776 416.221,193.36L417.555,193.36C418.829,194.732 419.685,196.221 420.125,197.829C420.564,199.436 420.564,201.044 420.125,202.651C419.685,204.259 418.829,205.748 417.555,207.12L416.221,207.12Z" style="fill-rule:nonzero;"/>
    <path d="M427.216,197.568L429.264,197.568L429.264,199.616L427.216,199.616L427.216,197.568ZM428.112,205.68L427.216,205.68L427.216,203.632L429.264,203.632L429.264,205.456L428.24,208.176L427.344,208.176L428.112,205.68Z" style="fill-rule:nonzero;"/>
    <rect x="192" y="184" width="248" height="32" style="fill:none;stroke:black;stroke-width:1.5px;"/>
    <path d="M288.272,261.184L289.808,261.184L289.808,269.696L288.272,269.696L288.272,261.184ZM284.896,268.368L292.704,268.368L292.704,269.696L284.896,269.696L284.896,268.368ZM285.056,261.184L289.712,261.184L289.712,262.512L285.056,262.512L285.056,261.184ZM288.16,258.304L289.76,258.304L289.76,259.936L288.16,259.936L288.16,258.304Z" style="fill-rule:nonzero;"/>
    <path d="M306.973,261.011L308.387,261.011L308.387,268.627L306.973,268.627L306.973,261.011ZM303.872,264.112L311.488,264.112L311.488,265.523L303.872,265.523L303.872,264.112Z" style="fill-rule:nonzero;"/>
    <path d="M313.737,262.352L320.822,262.352L320.822,263.763L313.737,263.763L313.737,262.352ZM313.737,265.952L320.822,265.952L320.822,267.363L313.737,267.363L313.737,265.952Z" style="fill-rule:nonzero;"/>
    <path d="M336.128,261.511L333.171,261.511L333.171,260.179L334.656,260.179C335.072,260.179 335.408,260.118 335.664,259.995C335.92,259.873 336.106,259.677 336.222,259.41C336.339,259.142 336.397,258.784 336.397,258.336L337.696,258.336L337.696,269.696L336.128,269.696L336.128,261.511ZM332.576,268.231L340.384,268.231L340.384,269.696L332.576,269.696L332.576,268.231Z" style="fill-rule:nonzero;"/>
    <path d="M345.056,261.584L347.104,261.584L347.104,263.632L345.056,263.632L345.056,261.584ZM345.952,269.696L345.056,269.696L345.056,267.648L347.104,267.648L347.104,269.472L346.08,272.192L345.184,272.192L345.952,269.696Z" style="fill-rule:nonzero;"/>
    <rect x="272" y="248" width="88" height="32" style="fill:none;stroke:black;stroke-width:1.5px;"/>
    <path d="M43.888,357.168L45.322,357.168L45.363,359.107L45.165,358.985C45.374,358.339 45.72,357.843 46.202,357.496C46.684,357.149 47.254,356.976 47.914,356.976C48.694,356.976 49.351,357.174 49.885,357.571C50.418,357.968 50.817,358.503 51.082,359.176C51.346,359.849 51.479,360.598 51.479,361.424C51.479,362.25 51.346,362.999 51.082,363.672C50.817,364.345 50.418,364.88 49.885,365.277C49.351,365.674 48.694,365.872 47.914,365.872C47.483,365.872 47.083,365.797 46.714,365.648C46.345,365.499 46.03,365.286 45.771,365.011C45.512,364.736 45.326,364.415 45.213,364.048L45.418,363.827L45.418,368.08L43.888,368.08L43.888,357.168ZM47.664,364.445C48.353,364.445 48.893,364.18 49.285,363.651C49.676,363.122 49.872,362.38 49.872,361.424C49.872,360.468 49.676,359.726 49.285,359.197C48.893,358.668 48.353,358.403 47.664,358.403C47.205,358.403 46.806,358.518 46.467,358.749C46.128,358.979 45.868,359.32 45.688,359.771C45.508,360.222 45.418,360.773 45.418,361.424C45.418,362.075 45.508,362.625 45.688,363.075C45.868,363.525 46.126,363.866 46.461,364.098C46.796,364.329 47.197,364.445 47.664,364.445Z" style="fill-rule:nonzero;"/>
    <path d="M55.805,357.168L56.983,357.168L57.123,359.312L56.989,359.293C57.091,358.582 57.321,358.051 57.679,357.698C58.036,357.345 58.521,357.168 59.133,357.168L60.944,357.168L60.944,358.537L59.21,358.537C58.798,358.537 58.452,358.616 58.171,358.773C57.891,358.93 57.681,359.161 57.543,359.467C57.404,359.773 57.335,360.148 57.335,360.592L57.335,365.68L55.805,365.68L55.805,357.168ZM53.648,364.349L59.984,364.349L59.984,365.68L53.648,365.68L53.648,364.349ZM53.648,357.168L56.624,357.168L56.624,358.499L53.648,358.499L53.648,357.168Z" style="fill-rule:nonzero;"/>
    <path d="M66.432,357.168L67.968,357.168L67.968,365.68L66.432,365.68L66.432,357.168ZM63.056,364.352L70.864,364.352L70.864,365.68L63.056,365.68L63.056,364.352ZM63.216,357.168L67.872,357.168L67.872,358.496L63.216,358.496L63.216,357.168ZM66.32,354.288L67.92,354.288L67.92,355.92L66.32,355.92L66.32,354.288Z" style="fill-rule:nonzero;"/>
    <path d="M72.951,357.168L74.343,357.168L74.397,359.389L74.218,359.261C74.365,358.508 74.684,357.939 75.176,357.554C75.668,357.169 76.259,356.976 76.951,356.976C77.861,356.976 78.556,357.273 79.035,357.866C79.514,358.459 79.754,359.234 79.754,360.192L79.754,365.68L78.224,365.68L78.224,360.617C78.224,359.845 78.093,359.267 77.83,358.883C77.568,358.499 77.142,358.307 76.554,358.307C75.935,358.307 75.435,358.511 75.053,358.92C74.671,359.328 74.48,359.905 74.48,360.649L74.48,365.68L72.951,365.68L72.951,357.168Z" style="fill-rule:nonzero;"/>
    <path d="M87.063,365.68C86.207,365.68 85.57,365.479 85.15,365.077C84.731,364.675 84.522,364.059 84.522,363.229L84.522,354.969L86.051,354.969L86.051,363.19C86.051,363.585 86.144,363.877 86.328,364.066C86.513,364.254 86.794,364.349 87.171,364.349L89.424,364.349L89.424,365.68L87.063,365.68ZM81.808,357.168L89.424,357.168L89.424,358.499L81.808,358.499L81.808,357.168Z" style="fill-rule:nonzero;"/>
    <path d="M95.216,356.707C95.216,356.372 95.124,356.112 94.939,355.928C94.755,355.743 94.495,355.651 94.16,355.651L92.176,355.651L92.176,354.32L94.243,354.32C95.069,354.32 95.692,354.531 96.114,354.952C96.535,355.373 96.746,355.997 96.746,356.822L96.746,365.68L95.216,365.68L95.216,356.707ZM91.856,364.349L99.664,364.349L99.664,365.68L91.856,365.68L91.856,364.349Z" style="fill-rule:nonzero;"/>
    <path d="M101.751,357.168L103.143,357.168L103.197,359.389L103.018,359.261C103.165,358.508 103.484,357.939 103.976,357.554C104.468,357.169 105.059,356.976 105.75,356.976C106.661,356.976 107.356,357.273 107.835,357.866C108.314,358.459 108.553,359.234 108.553,360.192L108.553,365.68L107.024,365.68L107.024,360.617C107.024,359.845 106.893,359.267 106.63,358.883C106.368,358.499 105.942,358.307 105.354,358.307C104.735,358.307 104.235,358.511 103.853,358.92C103.471,359.328 103.28,359.905 103.28,360.649L103.28,365.68L101.751,365.68L101.751,357.168Z" style="fill-rule:nonzero;"/>
    <path d="M113.616,363.632L115.664,363.632L115.664,365.68L113.616,365.68L113.616,363.632ZM114.135,362.237C114.1,361.874 114.065,361.511 114.029,361.149C113.982,360.613 113.942,360.054 113.909,359.472C113.876,358.89 113.859,358.388 113.859,357.968L113.859,354.32L115.421,354.32L115.421,357.968C115.421,358.371 115.404,358.868 115.371,359.459C115.338,360.05 115.302,360.613 115.264,361.149C115.23,361.511 115.195,361.874 115.159,362.237L114.135,362.237Z" style="fill-rule:nonzero;"/>
    <path d="M125.325,367.12C124.051,365.748 123.195,364.259 122.755,362.651C122.316,361.044 122.316,359.436 122.755,357.829C123.195,356.221 124.051,354.732 125.325,353.36L126.659,353.36C125.505,354.776 124.732,356.277 124.339,357.862C123.947,359.447 123.947,361.033 124.339,362.618C124.732,364.203 125.505,365.703 126.659,367.12L125.325,367.12Z" style="fill-rule:nonzero;"/>
    <path d="M134.486,354.32L135.997,354.32L135.997,355.619L135.625,359.587L134.553,359.587L134.486,354.32ZM131.683,355.616L131.683,354.32L133.187,354.32L133.123,359.587L132.054,359.587L131.683,355.616Z" style="fill-rule:nonzero;"/>
    <path d="M143.232,357.168L144.768,357.168L144.768,365.68L143.232,365.68L143.232,357.168ZM139.856,364.352L147.664,364.352L147.664,365.68L139.856,365.68L139.856,364.352ZM140.016,357.168L144.672,357.168L144.672,358.496L140.016,358.496L140.016,357.168ZM143.12,354.288L144.72,354.288L144.72,355.92L143.12,355.92L143.12,354.288Z" style="fill-rule:nonzero;"/>
    <path d="M159.097,358.336L166.182,358.336L166.182,359.747L159.097,359.747L159.097,358.336ZM159.097,361.936L166.182,361.936L166.182,363.347L159.097,363.347L159.097,361.936Z" style="fill-rule:nonzero;"/>
    <path d="M184.093,367.299C183.495,367.299 182.964,367.177 182.498,366.933C182.032,366.689 181.671,366.348 181.416,365.912C181.161,365.476 181.033,364.975 181.033,364.409L181.033,363.126C181.033,362.616 180.952,362.213 180.79,361.915C180.628,361.618 180.37,361.403 180.014,361.27C179.659,361.138 179.166,361.076 178.534,361.085L178.534,359.571C179.164,359.582 179.657,359.521 180.013,359.389C180.369,359.257 180.628,359.042 180.79,358.744C180.952,358.446 181.033,358.043 181.033,357.533L181.033,356.249C181.033,355.684 181.161,355.183 181.416,354.747C181.671,354.311 182.032,353.971 182.498,353.726C182.964,353.482 183.495,353.36 184.093,353.36L184.947,353.36L184.947,354.771C184.068,354.739 183.444,354.839 183.074,355.07C182.704,355.302 182.518,355.698 182.518,356.259L182.518,357.629C182.518,358.339 182.329,358.934 181.949,359.414C181.569,359.894 181.077,360.187 180.473,360.291L180.473,360.339C181.088,360.444 181.582,360.738 181.957,361.222C182.331,361.707 182.518,362.309 182.518,363.03L182.518,364.4C182.518,364.955 182.704,365.348 183.074,365.579C183.444,365.811 184.068,365.915 184.947,365.891L184.947,367.299L184.093,367.299Z" style="fill-rule:nonzero;"/>
    <path d="M188.333,367.299L188.333,365.891C189.212,365.915 189.836,365.811 190.206,365.579C190.576,365.348 190.761,364.955 190.761,364.4L190.761,363.03C190.761,362.309 190.949,361.707 191.323,361.222C191.698,360.738 192.192,360.444 192.806,360.339L192.806,360.291C192.203,360.187 191.711,359.894 191.331,359.414C190.951,358.934 190.761,358.339 190.761,357.629L190.761,356.259C190.761,355.698 190.576,355.302 190.206,355.07C189.836,354.839 189.212,354.739 188.333,354.771L188.333,353.36L189.187,353.36C189.785,353.36 190.316,353.482 190.782,353.726C191.248,353.971 191.609,354.311 191.864,354.747C192.119,355.183 192.246,355.684 192.246,356.249L192.246,357.533C192.246,358.043 192.328,358.446 192.49,358.744C192.652,359.042 192.911,359.257 193.267,359.389C193.623,359.521 194.116,359.582 194.745,359.571L194.745,361.085C194.114,361.076 193.621,361.138 193.266,361.27C192.91,361.403 192.652,361.618 192.49,361.915C192.328,362.213 192.246,362.616 192.246,363.126L192.246,364.409C192.246,364.975 192.119,365.476 191.864,365.912C191.609,366.348 191.248,366.689 190.782,366.933C190.316,367.177 189.785,367.299 189.187,367.299L188.333,367.299Z" style="fill-rule:nonzero;"/>
    <path d="M201.686,354.32L203.197,354.32L203.197,355.619L202.825,359.587L201.753,359.587L201.686,354.32ZM198.883,355.616L198.883,354.32L200.387,354.32L200.323,359.587L199.254,359.587L198.883,355.616Z" style="fill-rule:nonzero;"/>
    <path d="M210.512,365.68L209.616,365.68L209.616,363.632L211.664,363.632L211.664,365.449L210.633,368.182L209.744,368.182L210.512,365.68Z" style="fill-rule:nonzero;"/>
    <path d="M229.632,357.168L231.168,357.168L231.168,365.68L229.632,365.68L229.632,357.168ZM226.256,364.352L234.064,364.352L234.064,365.68L226.256,365.68L226.256,364.352ZM226.416,357.168L231.072,357.168L231.072,358.496L226.416,358.496L226.416,357.168ZM229.52,354.288L231.12,354.288L231.12,355.92L229.52,355.92L229.52,354.288Z" style="fill-rule:nonzero;"/>
    <path d="M237.021,367.12C238.175,365.703 238.948,364.203 239.341,362.618C239.733,361.033 239.733,359.447 239.341,357.862C238.948,356.277 238.175,354.776 237.021,353.36L238.355,353.36C239.629,354.732 240.485,356.221 240.925,357.829C241.364,359.436 241.364,361.044 240.925,362.651C240.485,364.259 239.629,365.748 238.355,367.12L237.021,367.12Z" style="fill-rule:nonzero;"/>
    <path d="M248.016,357.568L250.064,357.568L250.064,359.616L248.016,359.616L248.016,357.568ZM248.912,365.68L248.016,365.68L248.016,363.632L250.064,363.632L250.064,365.456L249.04,368.176L248.144,368.176L248.912,365.68Z" style="fill-rule:nonzero;"/>
    <rect x="32" y="344" width="232" height="32" style="fill:none;stroke:black;stroke-width:1.5px;"/>
    <path d="M100.5,402.439L96,406.939L91.5,402.439" style="fill:none;stroke:black;stroke-width:1.5px;stroke-linejoin:miter;stroke-miterlimit:10;"/>
    <path d="M96,376L96,406.939" style="fill:none;stroke:black;stroke-width:1.5px;"/>
</svg>
